<?xml version="1.0" encoding="UTF-8" standalone="no"?>
<svg
   xmlns:dc="http://purl.org/dc/elements/1.1/"
   xmlns:cc="http://creativecommons.org/ns#"
   xmlns:rdf="http://www.w3.org/1999/02/22-rdf-syntax-ns#"
   xmlns:svg="http://www.w3.org/2000/svg"
   xmlns="http://www.w3.org/2000/svg"
   viewBox="0 0 1821.3333 1024"
   height="1024"
   width="1821.3333"
   xml:space="preserve"
   id="svg2"
   version="1.1"><metadata
     id="metadata8"><rdf:RDF><cc:Work
         rdf:about=""><dc:format>image/svg+xml</dc:format><dc:type
           rdf:resource="http://purl.org/dc/dcmitype/StillImage" /></cc:Work></rdf:RDF></metadata><defs
     id="defs6"><clipPath
       id="clipPath18"
       clipPathUnits="userSpaceOnUse"><path
         id="path16"
         d="M 0,768 H 1366 V 0 H 0 Z" /></clipPath></defs><g
     transform="matrix(1.3333333,0,0,-1.3333333,0,1024)"
     id="g10"><g
       id="g12"><g
         clip-path="url(#clipPath18)"
         id="g14"><g
           transform="translate(738.4185,189.4302)"
           id="g20"><path
             id="path22"
             style="fill:#ffffff;fill-opacity:1;fill-rule:nonzero;stroke:none"
             d="m 0,0 c -0.697,-0.84 -1.507,-1.572 -2.205,-2.35 -0.467,-0.518 -0.883,-1.056 -1.183,-1.66 -0.301,-0.603 -0.486,-1.271 -0.488,-2.05 -10e-4,-0.389 0.044,-0.806 0.143,-1.255 0.065,-0.299 -0.138,-0.682 -0.432,-1.07 -0.147,-0.194 -0.317,-0.389 -0.488,-0.576 -0.17,-0.186 -0.341,-0.364 -0.492,-0.522 -3.564,-3.778 -7.198,-7.49 -10.758,-11.271 -0.903,-0.958 -1.852,-1.601 -2.9,-1.9 -0.524,-0.151 -1.073,-0.215 -1.653,-0.19 -0.581,0.024 -1.193,0.137 -1.843,0.343 -5.452,1.72 -9.482,5.075 -12.218,10.058 -1.199,2.184 -1.378,4.206 -0.418,6.145 0.32,0.646 0.767,1.284 1.344,1.914 4.091,4.467 8.105,9.004 12.166,13.498 h 0.001 c 0.855,0.946 1.699,1.902 2.562,2.842 2.208,2.407 4.504,4.751 7.098,7.411 0.124,0.127 0.243,0.25 0.369,0.379 0.869,0.892 1.769,1.817 2.715,2.799 3.577,-4.376 7.352,-8.524 10.596,-13.022 L 2.033,9.417 C 2.408,8.895 2.78,8.371 3.138,7.838 3.936,6.65 3.946,5.553 3.552,4.534 3.289,3.854 2.847,3.209 2.34,2.592 1.579,1.668 0.671,0.809 0,0" /></g><g
           transform="translate(778.0794,227.2839)"
           id="g24"><path
             id="path26"
             style="fill:#ffffff;fill-opacity:1;fill-rule:nonzero;stroke:none"
             d="m 0,0 c -4.465,-5.385 -9.065,-10.509 -14.423,-15.019 0,0 0,10e-4 10e-4,10e-4 -10e-4,-10e-4 -0.002,-0.002 -0.003,-0.002 -1.466,-1.234 -3.01,-2.404 -4.602,-3.537 -0.366,-0.262 -0.739,-0.518 -1.113,-0.773 -1.635,-1.115 -3.316,-2.195 -5.11,-3.19 -0.962,1.291 -2.131,2.738 -3.167,4.275 -2.55,3.787 -5.039,7.616 -7.554,11.429 -0.174,0.263 -0.333,0.521 -0.475,0.774 -0.284,0.506 -0.497,0.993 -0.611,1.478 -0.171,0.728 -0.12,1.45 0.246,2.219 0.244,0.512 0.629,1.045 1.182,1.614 3.273,3.372 6.422,6.869 9.564,10.403 0.001,0 0.001,0 0.002,-0.001 2.338,2.631 4.668,5.278 7.045,7.923 0.735,-2.068 1.59,-3.993 2.562,-5.787 0.184,-0.34 0.37,-0.678 0.564,-1.007 0.369,-0.623 0.764,-1.218 1.172,-1.799 0.175,-0.25 0.339,-0.512 0.522,-0.754 0.602,-0.794 1.24,-1.547 1.93,-2.247 0.128,-0.128 0.274,-0.237 0.404,-0.363 0.581,-0.558 1.19,-1.088 1.838,-1.576 0.269,-0.203 0.558,-0.385 0.84,-0.575 0.558,-0.378 1.139,-0.734 1.749,-1.06 0.326,-0.175 0.659,-0.344 1.001,-0.503 0.653,-0.304 1.342,-0.571 2.052,-0.816 0.331,-0.114 0.648,-0.242 0.992,-0.343 1.065,-0.313 2.178,-0.579 3.375,-0.76 C -0.011,0.003 -0.006,0.001 0,0 Z" /></g><g
           transform="translate(781.611,231.5242)"
           id="g28"><path
             id="path30"
             style="fill:#ffffff;fill-opacity:1;fill-rule:nonzero;stroke:none"
             d="m 0,0 c -0.432,-1.689 -1.774,-2.552 -3.913,-2.465 -0.759,0.031 -1.557,0.187 -2.371,0.411 -0.265,0.074 -0.534,0.185 -0.803,0.277 -0.559,0.19 -1.115,0.4 -1.681,0.664 -0.313,0.146 -0.618,0.307 -0.931,0.473 -0.531,0.282 -1.053,0.586 -1.577,0.921 -0.313,0.2 -0.617,0.395 -0.925,0.611 -0.534,0.377 -1.048,0.781 -1.559,1.201 -0.265,0.217 -0.533,0.419 -0.789,0.646 -0.695,0.616 -1.356,1.261 -1.973,1.934 -0.118,0.129 -0.225,0.258 -0.339,0.389 -0.563,0.641 -1.084,1.296 -1.55,1.965 -0.192,0.274 -0.343,0.547 -0.516,0.824 -0.217,0.347 -0.465,0.693 -0.65,1.042 0.015,0.008 0.031,0.016 0.046,0.025 -0.587,1.113 -1.066,2.224 -1.26,3.295 -0.597,3.297 1.015,5.192 4.377,5.145 3.463,-0.049 7.889,-2.797 11.311,-6.282 0.038,-0.022 0.076,-0.031 0.114,-0.054 0.245,-0.252 0.45,-0.524 0.683,-0.784 0.314,-0.347 0.622,-0.686 0.912,-1.044 0.379,-0.469 0.708,-0.94 1.038,-1.418 0.235,-0.34 0.482,-0.673 0.688,-1.016 0.326,-0.539 0.572,-1.07 0.817,-1.605 0.129,-0.283 0.295,-0.566 0.4,-0.846 C -0.151,3.507 0.055,2.722 0.12,1.976 0.121,1.971 0.124,1.965 0.124,1.96 0.187,1.218 0.144,0.563 0,0" /></g><g
           transform="translate(699.1001,385.2661)"
           id="g32"><path
             id="path34"
             style="fill:#000000;fill-opacity:1;fill-rule:nonzero;stroke:none"
             d="M 0,0 C 0.839,0.066 1.608,0.432 2.306,1.1 3.004,1.767 3.436,2.546 3.602,3.437 3.767,4.327 3.617,5.061 3.15,5.637 2.683,6.214 2.03,6.469 1.191,6.404 0.358,6.339 -0.409,5.971 -1.111,5.299 -1.814,4.628 -2.247,3.851 -2.411,2.967 -2.575,2.083 -2.421,1.352 -1.948,0.772 -1.475,0.193 -0.826,-0.065 0,0" /></g><g
           transform="translate(629.5603,333.327)"
           id="g36"><path
             id="path38"
             style="fill:#000000;fill-opacity:1;fill-rule:nonzero;stroke:none"
             d="M 0,0 C 0.022,-0.008 0.044,-0.017 0.065,-0.025 L 0.053,-0.017 C 0.036,-0.012 0.017,-0.006 0,0" /></g><g
           transform="translate(653.1941,411.237)"
           id="g40"><path
             id="path42"
             style="fill:#000000;fill-opacity:1;fill-rule:nonzero;stroke:none"
             d="M 0,0 C -0.998,-0.893 -1.637,-2.091 -1.916,-3.592 L -3.059,-9.74 c -0.289,-1.556 -0.064,-2.71 0.676,-3.464 0.74,-0.753 1.954,-1.064 3.642,-0.932 l 3.591,0.28 0.833,4.482 -3.072,-0.24 c -0.533,-0.042 -0.876,-0.018 -1.03,0.072 -0.153,0.09 -0.199,0.3 -0.138,0.629 0.054,0.291 0.177,0.505 0.369,0.641 0.191,0.135 0.49,0.219 0.895,0.251 l 2.983,0.233 0.649,3.493 -2.521,-0.197 c -0.48,-0.037 -0.803,-0.004 -0.969,0.1 -0.165,0.104 -0.219,0.309 -0.162,0.616 0.096,0.521 0.539,0.812 1.327,0.874 L 6.929,-2.675 7.766,1.83 3.793,1.519 C 2.262,1.4 0.998,0.893 0,0" /></g><g
           transform="translate(641.3238,524.8107)"
           id="g44"><path
             id="path46"
             style="fill:#000000;fill-opacity:1;fill-rule:nonzero;stroke:none"
             d="M 0,0 C 0.008,-0.137 0.011,-0.269 0.032,-0.417 0.044,-0.266 0.029,-0.129 0,0" /></g><g
           transform="translate(706.009,580.832)"
           id="g48"><path
             id="path50"
             style="fill:#000000;fill-opacity:1;fill-rule:nonzero;stroke:none"
             d="m 0,0 c -0.001,-0.019 0.011,-0.027 0.011,-0.047 0.006,-0.001 0.011,0.003 0.017,0.001 z" /></g><g
           transform="translate(695.9978,579.7328)"
           id="g52"><path
             id="path54"
             style="fill:#000000;fill-opacity:1;fill-rule:nonzero;stroke:none"
             d="m 0,0 c 0.012,-0.003 0.022,-0.007 0.033,-0.01 0.004,0.013 0,0.021 0.004,0.035 z" /></g><g
           transform="translate(661.8107,581.2417)"
           id="g56"><path
             id="path58"
             style="fill:#000000;fill-opacity:1;fill-rule:nonzero;stroke:none"
             d="m 0,0 c 0.019,-0.049 0.001,-0.072 0.017,-0.118 0.019,0.015 0.042,0.026 0.061,0.041 z" /></g><g
           transform="translate(690.8229,519.7681)"
           id="g60"><path
             id="path62"
             style="fill:#000000;fill-opacity:1;fill-rule:nonzero;stroke:none"
             d="m 0,0 c -0.001,-0.023 0.008,-0.041 0.008,-0.063 0.028,0.004 0.044,-0.02 0.074,-0.012 L 0.086,-0.079 C 0.089,-0.052 0.076,-0.03 0.078,-0.003 0.049,-0.008 0.034,0.003 0.004,-0.004 0.004,-0.004 0,0 0,0" /></g><g
           transform="translate(696.4981,510.2082)"
           id="g64"><path
             id="path66"
             style="fill:#000000;fill-opacity:1;fill-rule:nonzero;stroke:none"
             d="M 0,0 C 0.035,-0.111 0.083,-0.228 0.162,-0.361 0.117,-0.229 0.057,-0.116 0,0" /></g><g
           transform="translate(689.1172,520.853)"
           id="g68"><path
             id="path70"
             style="fill:#000000;fill-opacity:1;fill-rule:nonzero;stroke:none"
             d="m 0,0 c -1.133,-0.566 -0.831,1.512 -1.823,0.78 -0.969,-0.715 0.263,-1.3 0.097,-1.891 -0.31,-1.105 1.11,-1.944 0.328,-3.167 -0.936,0.99 -1.891,1.894 -2.892,0.042 -0.113,-0.21 -0.998,-0.88 -1.57,-0.069 -0.92,1.304 -0.921,0.227 -1.669,-0.302 -1.474,-1.039 -0.256,-2.398 -1.093,-3.462 -0.72,1.97 -1.413,3.865 -2.106,5.76 -0.142,-0.027 -0.285,-0.054 -0.427,-0.081 v -3.062 c -0.618,0.688 -0.703,1.407 -1.456,1.555 -0.104,-0.631 -0.209,-1.266 -0.329,-1.992 -1.381,1.025 -3.063,1.538 -2.888,3.64 -0.298,-1.102 -0.442,-2.16 -1.474,-2.644 -0.891,0.592 0.149,1.921 -0.904,2.127 -1.063,0.208 -1.05,-1.035 -1.527,-1.622 -0.679,-0.836 -1.405,-1.646 -1.978,-2.551 -0.8,-1.265 -1.443,-1.937 -2.158,0.04 -0.124,0.343 -0.519,0.588 -0.931,1.031 -0.425,-1.158 -1.724,-1.73 -0.853,-3.036 0.308,-0.461 0.394,-1.17 -0.199,-1.411 -0.592,-0.24 -1.189,0.384 -1.216,0.844 -0.17,2.937 -1.528,0.054 -2.173,0.436 -0.287,1.036 -0.05,2.031 0.037,3.095 -0.828,-0.854 -1.33,-1.876 -2.074,-2.672 -0.535,-0.571 -1.294,1.677 -2.063,0.042 -1.11,-2.356 -2.142,-0.972 -3.551,-0.155 -1.495,0.87 -2.504,1.104 -3.378,1.97 -3.32,-2.258 -0.499,-4.99 -1.662,-7.479 1.511,-0.127 2.361,0.534 3.713,-0.35 1.531,-1 -1.831,-4.559 -2.051,-5.543 3.529,-0.924 11.803,5.226 14.831,5.893 6.121,1.35 11.496,2.603 17.791,2.356 4.611,-0.181 7.143,0.62 11.416,-0.763 0.435,-0.255 4.786,-0.992 5.192,-0.654 -1.819,1.582 -8.067,1.742 -8.985,4.218 1.788,-0.261 6.118,1.05 7.406,-1.568 -0.387,1.23 1.734,1.216 2.596,1.848 0.884,0.648 4.531,3.089 4.07,3.65 -0.72,0.878 -8.77,-0.154 -8.952,-1.267 C 5.05,-6.69 4.04,-5.949 3.518,-5.588 5.903,-4.41 3.373,-4.293 3.061,-3.883 2.418,-3.039 1.698,-2.292 1.713,-1.148 0.721,-1.291 0.472,0.236 0,0" /></g><g
           transform="translate(710.1836,518.4976)"
           id="g72"><path
             id="path74"
             style="fill:#000000;fill-opacity:1;fill-rule:nonzero;stroke:none"
             d="m 0,0 c -1.876,-0.399 -1.571,1.066 -1.718,2.077 -0.126,0.867 0.289,1.881 -0.879,2.482 -0.528,-1.081 -1.301,-2.061 -0.427,-3.403 0.397,-0.611 0.426,-1.474 -0.141,-2.041 -3.458,-3.457 -2.298,-7.143 -1.055,-11.154 0.962,-3.103 0.084,0.437 1.212,-0.982 0.439,1.066 0.266,3.49 0,4.697 -0.708,3.216 3.07,4.44 3.435,7.719 C 0.452,-0.377 0.663,0.141 0,0" /></g><g
           transform="translate(711.808,536.8572)"
           id="g76"><path
             id="path78"
             style="fill:#000000;fill-opacity:1;fill-rule:nonzero;stroke:none"
             d="m 0,0 c -0.673,0.137 -1.034,-0.532 -1.148,-1.245 -0.19,-1.181 0.591,-2.584 -0.769,-3.51 -0.734,0.472 0.041,1.399 -0.577,1.901 -1.529,-0.914 -2.199,-2.352 -2.513,-3.993 -0.126,-0.662 -0.024,-1.413 0.649,-1.642 0.592,-0.201 0.811,0.427 1.031,0.939 0.244,0.57 0.593,1.24 1.406,0.9 0.843,-0.353 0.272,-0.995 0.262,-1.565 -0.059,-3.027 -0.028,-6.056 -0.028,-9.389 1.132,1.411 1.226,2.734 1.197,4.223 -0.075,3.973 -0.628,7.998 0.779,11.874 C 0.516,-0.884 0.855,-0.174 0,0" /></g><g
           transform="translate(653.0169,577.1833)"
           id="g80"><path
             id="path82"
             style="fill:#000000;fill-opacity:1;fill-rule:nonzero;stroke:none"
             d="m 0,0 c -1.849,-0.932 -4.249,0.902 -5.856,-1.204 -0.598,-0.784 -1.567,-0.228 -2.322,-0.495 -0.592,-0.582 -1.986,-0.048 -2.166,-1.503 0.995,-0.007 1.633,0.361 2.178,0.941 2.614,-0.652 4.908,2.086 7.637,0.696 0.468,-0.238 0.978,0.42 1.138,0.948 C 0.736,-0.201 0.348,0.175 0,0" /></g><g
           transform="translate(696.0013,579.7353)"
           id="g84"><path
             id="path86"
             style="fill:#000000;fill-opacity:1;fill-rule:nonzero;stroke:none"
             d="M 0,0 C -0.003,-0.002 0.034,0.023 0.034,0.023 0.048,0.041 0.032,0.053 0.041,0.071 0.028,0.042 0.012,0.031 0,0" /></g><g
           transform="translate(699.1437,580.1967)"
           id="g88"><path
             id="path90"
             style="fill:#000000;fill-opacity:1;fill-rule:nonzero;stroke:none"
             d="M 0,0 C -1.353,0.769 -1.032,1.573 -0.039,2.412 H -5.401 C -4.954,1.469 -3.045,1.762 -3.53,1.486 -6.005,0.076 -2.774,0.258 -3.102,-0.391 -2.4,1.18 -1.155,-0.4 0,0" /></g><g
           transform="translate(648.1698,513.8765)"
           id="g92"><path
             id="path94"
             style="fill:#000000;fill-opacity:1;fill-rule:nonzero;stroke:none"
             d="M 0,0 C 0.985,1.049 0.694,2.14 0.376,3.307 0.3,3.585 0.727,4.013 0.221,4.216 -0.425,4.475 -0.462,3.987 -0.622,3.532 -0.913,2.704 -1.396,1.938 -1.645,1.1 -1.884,0.293 -1.453,-0.301 -0.677,-0.628 -0.22,-0.646 -0.215,-0.229 0,0" /></g><g
           transform="translate(667.2275,524.3373)"
           id="g96"><path
             id="path98"
             style="fill:#000000;fill-opacity:1;fill-rule:nonzero;stroke:none"
             d="M 0,0 C -1.04,-1.516 -0.973,-3.006 -0.956,-4.467 -0.405,-3.138 0.857,-1.959 0,0" /></g><g
           transform="translate(678.2666,588.1516)"
           id="g100"><path
             id="path102"
             style="fill:#000000;fill-opacity:1;fill-rule:nonzero;stroke:none"
             d="m 0,0 c -0.72,0.047 -1.359,0.074 -1.343,-0.867 0.015,-0.855 0.651,-0.654 1.149,-0.682 0.566,-0.033 0.974,0.022 1.093,0.777 C 1.054,0.212 0.376,-0.092 0,0" /></g><g
           transform="translate(666.5038,581.596)"
           id="g104"><path
             id="path106"
             style="fill:#000000;fill-opacity:1;fill-rule:nonzero;stroke:none"
             d="M 0,0 C -2.03,1.773 -3.338,0.958 -4.557,-0.372 -3.052,-0.814 -1.807,0.52 0,0" /></g><g
           transform="translate(661.8154,581.2372)"
           id="g108"><path
             id="path110"
             style="fill:#000000;fill-opacity:1;fill-rule:nonzero;stroke:none"
             d="m 0,0 c -0.005,0.004 0.074,-0.073 0.074,-0.073 0.019,0.021 0.039,0.039 0.058,0.06 C 0.087,0 0.046,-0.017 0,0" /></g><g
           transform="translate(682.8972,521.058)"
           id="g112"><path
             id="path114"
             style="fill:#000000;fill-opacity:1;fill-rule:nonzero;stroke:none"
             d="M 0,0 C 0.957,-1.109 0.572,-2.701 1.553,-3.942 2.066,-2.138 1.83,-0.773 0,0" /></g><g
           transform="translate(660.4736,517.7866)"
           id="g116"><path
             id="path118"
             style="fill:#000000;fill-opacity:1;fill-rule:nonzero;stroke:none"
             d="M 0,0 C 0.374,0.802 0.706,1.623 1.05,2.438 1.738,3.737 1.651,5.037 1.344,6.589 -0.049,5.657 0.509,4.61 0.475,3.694 0.569,3.597 0.609,3.476 0.634,3.348 0.581,3.463 0.528,3.579 0.475,3.694 0.144,2.429 -0.778,1.313 -0.611,-0.139 -0.319,-0.078 -0.043,-0.093 0,0" /></g><g
           transform="translate(662.0194,578.5931)"
           id="g120"><path
             id="path122"
             style="fill:#000000;fill-opacity:1;fill-rule:nonzero;stroke:none"
             d="M 0,0 C 0.864,0.144 1.728,0.288 2.649,0.441 1.499,2.283 0.792,0.806 0,0" /></g><g
           transform="translate(654.0556,518.7565)"
           id="g124"><path
             id="path126"
             style="fill:#000000;fill-opacity:1;fill-rule:nonzero;stroke:none"
             d="M 0,0 C 0.228,1.083 0.478,2.029 -0.766,2.581 -0.907,1.665 -1.234,0.762 0,0" /></g><g
           transform="translate(704.4798,582.0554)"
           id="g128"><path
             id="path130"
             style="fill:#000000;fill-opacity:1;fill-rule:nonzero;stroke:none"
             d="M 0,0 C -0.973,0.156 -1.947,0.312 -3.145,0.505 -2.137,-0.959 -1.05,-0.354 0,0" /></g><g
           transform="translate(692.7338,584.6294)"
           id="g132"><path
             id="path134"
             style="fill:#000000;fill-opacity:1;fill-rule:nonzero;stroke:none"
             d="M 0,0 C 1.518,-0.155 2.283,-0.719 3.564,-0.066 2.311,0.441 1.531,0.367 0,0" /></g><g
           transform="translate(688.3683,584.6479)"
           id="g136"><path
             id="path138"
             style="fill:#000000;fill-opacity:1;fill-rule:nonzero;stroke:none"
             d="M 0,0 C 1.085,-0.308 1.922,-0.546 3.191,-0.907 2.117,0.199 1.313,0.568 0,0" /></g><g
           transform="translate(688.6452,583.2864)"
           id="g140"><path
             id="path142"
             style="fill:#000000;fill-opacity:1;fill-rule:nonzero;stroke:none"
             d="M 0,0 C -0.427,-0.049 -0.765,-0.258 -0.611,-0.652 -0.299,-1.447 0.408,-1.023 0.968,-1.062 1.068,-0.354 0.887,0.101 0,0" /></g><g
           transform="translate(689.6133,582.2247)"
           id="g144"><path
             id="path146"
             style="fill:#000000;fill-opacity:1;fill-rule:nonzero;stroke:none"
             d="m 0,0 c -0.004,-0.027 0,-0.048 -0.005,-0.076 0.014,0.003 0.024,0 0.037,0.002 0.012,0.03 0.031,0.046 0.042,0.077 C 0.051,0.006 0.024,-0.002 0,0" /></g><g
           transform="translate(635.9476,565.6738)"
           id="g148"><path
             id="path150"
             style="fill:#000000;fill-opacity:1;fill-rule:nonzero;stroke:none"
             d="m 0,0 c -0.004,-0.027 0,-0.048 -0.005,-0.076 v 0 C 0.018,-0.047 0.049,-0.028 0.073,0 0.073,0.001 0.074,0.002 0.074,0.003 0.051,0.006 0.024,-0.002 0,0" /></g><g
           transform="translate(634.9794,566.7352)"
           id="g152"><path
             id="path154"
             style="fill:#000000;fill-opacity:1;fill-rule:nonzero;stroke:none"
             d="M 0,0 C -0.427,-0.049 -0.766,-0.258 -0.611,-0.652 -0.299,-1.446 0.408,-1.023 0.968,-1.061 1.069,-0.354 0.887,0.101 0,0" /></g><g
           transform="translate(685.6269,581.282)"
           id="g156"><path
             id="path158"
             style="fill:#000000;fill-opacity:1;fill-rule:nonzero;stroke:none"
             d="M 0,0 C -0.625,0.457 -1.243,0.908 -1.861,1.36 -1.708,0.09 -1.194,-0.544 0,0" /></g><g
           transform="translate(711.8198,578.8967)"
           id="g160"><path
             id="path162"
             style="fill:#000000;fill-opacity:1;fill-rule:nonzero;stroke:none"
             d="m 0,0 c -0.489,0.966 -1.509,0.276 -2.317,1.25 0.219,-1.683 1.103,-1.145 1.656,-1.29 0.576,-0.666 1.259,-1.059 2.192,-0.969 C 1.221,-0.24 0.725,0.075 0,0" /></g><g
           transform="translate(666.3376,586.7685)"
           id="g164"><path
             id="path166"
             style="fill:#000000;fill-opacity:1;fill-rule:nonzero;stroke:none"
             d="m 0,0 c -1.486,-0.591 -2.971,-1.181 -4.457,-1.772 -0.189,0.071 -0.337,0.022 -0.444,-0.149 -0.972,-0.425 -2.048,-0.652 -2.805,-1.481 -1.284,-0.2 -2.319,-0.901 -3.334,-1.641 -0.845,-0.591 -2.212,-0.307 -2.746,-1.787 0.814,0.296 1.636,-0.524 2.257,0.452 1.537,0.341 2.685,1.341 3.879,2.265 1.003,0.163 2.256,-0.297 2.762,1.102 0.85,1.137 2.706,-0.572 3.339,1.175 0.545,0.353 1.09,0.705 1.635,1.057 0.445,0.274 1.46,-0.437 1.37,0.542 C 1.403,0.342 0.629,0.713 0,0" /></g><g
           transform="translate(650.595,578.3097)"
           id="g168"><path
             id="path170"
             style="fill:#000000;fill-opacity:1;fill-rule:nonzero;stroke:none"
             d="M 0,0 C 0.341,-0.067 0.726,-0.093 0.856,0.491 0.745,0.627 0.611,0.951 0.44,0.972 -0.025,1.03 -0.477,0.876 -0.574,0.338 -0.588,0.257 -0.216,0.043 0,0" /></g><g
           transform="translate(708.3622,580.2382)"
           id="g172"><path
             id="path174"
             style="fill:#000000;fill-opacity:1;fill-rule:nonzero;stroke:none"
             d="M 0,0 C -0.781,0.282 -1.337,1.216 -2.305,0.556 -1.623,0.109 -1.042,-0.692 0,0" /></g><g
           transform="translate(706.0127,580.8268)"
           id="g176"><path
             id="path178"
             style="fill:#000000;fill-opacity:1;fill-rule:nonzero;stroke:none"
             d="m 0,0 c -0.004,0.005 0.024,-0.041 0.024,-0.041 0.008,0.006 0.014,0.003 0.021,0.008 C 0.03,-0.023 0.015,-0.01 0,0" /></g><g
           transform="translate(643.4703,411.7079)"
           id="g180"><path
             id="path182"
             style="fill:#ffffff;fill-opacity:1;fill-rule:nonzero;stroke:none"
             d="m 0,0 -4.57,-0.357 -1.872,-10.067 c -0.327,-1.762 -0.118,-3.102 0.628,-4.022 0.746,-0.919 1.952,-1.314 3.618,-1.184 l 1.216,0.095 0.846,4.551 -0.237,-0.018 c -0.675,-0.053 -1.105,0.032 -1.289,0.256 -0.184,0.223 -0.208,0.699 -0.073,1.426 z" /></g><g
           transform="translate(648.3204,411.8166)"
           id="g184"><path
             id="path186"
             style="fill:#ffffff;fill-opacity:1;fill-rule:nonzero;stroke:none"
             d="M 0,0 C 0.319,0.354 0.565,0.731 0.741,1.131 0.815,1.374 0.893,1.615 0.975,1.853 0.984,1.891 0.994,1.929 1.001,1.967 1.13,2.661 1.018,3.225 0.666,3.66 0.313,4.094 -0.186,4.287 -0.832,4.236 -1.497,4.184 -2.099,3.908 -2.634,3.407 -3.17,2.906 -3.502,2.312 -3.63,1.626 -3.751,0.973 -3.643,0.444 -3.305,0.038 c 0.338,-0.406 0.836,-0.603 1.494,-0.591 L -2.01,-1.626 C -1.244,-1.352 -0.533,-0.591 0,0" /></g><g
           transform="translate(660.1231,408.5623)"
           id="g188"><path
             id="path190"
             style="fill:#ffffff;fill-opacity:1;fill-rule:nonzero;stroke:none"
             d="m 0,0 -2.915,-0.228 c -0.788,-0.061 -1.231,-0.353 -1.327,-0.874 -0.057,-0.306 -0.003,-0.511 0.162,-0.615 0.166,-0.105 0.489,-0.138 0.969,-0.1 l 2.521,0.197 -0.649,-3.494 -2.983,-0.233 c -0.405,-0.031 -0.704,-0.115 -0.895,-0.251 -0.192,-0.135 -0.315,-0.349 -0.369,-0.64 -0.061,-0.33 -0.015,-0.539 0.138,-0.629 0.154,-0.09 0.497,-0.114 1.03,-0.073 l 3.072,0.241 -0.833,-4.482 -3.591,-0.281 c -1.688,-0.132 -2.902,0.179 -3.642,0.933 -0.74,0.754 -0.965,1.908 -0.676,3.464 l 1.143,6.147 c 0.279,1.502 0.918,2.7 1.916,3.593 0.998,0.893 2.262,1.4 3.793,1.519 l 3.973,0.311 z m 16.692,-29.072 13.131,1.026 5.825,31.333 c 0.892,4.799 0.519,8.392 -1.119,10.78 -1.638,2.388 -4.441,3.428 -8.408,3.118 C 23.62,16.989 21.427,16.335 19.542,15.223 17.656,14.11 15.757,12.351 13.844,9.946 12.197,14.003 9.11,15.856 4.583,15.502 0.766,15.204 -2.576,13.684 -5.444,10.944 -7.59,8.893 -9.143,6.481 -10.103,3.708 -10.157,3.46 -10.234,3.219 -10.337,2.986 -10.551,2.277 -10.729,1.546 -10.869,0.792 l -6.04,-32.489 13.13,1.026 5.451,29.319 C 2.118,1.047 2.988,2.297 4.282,2.398 4.971,2.452 5.39,2.246 5.537,1.781 5.684,1.315 5.625,0.367 5.359,-1.064 l -5.451,-29.319 13.13,1.026 5.494,29.55 c 0.417,2.245 1.273,3.418 2.567,3.519 0.689,0.054 1.104,-0.147 1.242,-0.602 0.138,-0.456 0.073,-1.41 -0.198,-2.863 z" /></g><g
           transform="translate(695.7996,400.3384)"
           id="g192"><path
             id="path194"
             style="fill:#ffffff;fill-opacity:1;fill-rule:nonzero;stroke:none"
             d="M 0,0 4.055,0.317 6.643,14.236 2.588,13.919 Z" /></g><g
           transform="translate(708.3231,405.2963)"
           id="g196"><path
             id="path198"
             style="fill:#ffffff;fill-opacity:1;fill-rule:nonzero;stroke:none"
             d="m 0,0 -0.21,-0.016 c -0.599,-0.047 -0.98,0.029 -1.144,0.227 -0.163,0.198 -0.185,0.62 -0.064,1.266 L 0.119,9.747 -3.936,9.43 -5.597,0.497 c -0.291,-1.563 -0.105,-2.753 0.557,-3.569 0.662,-0.816 1.732,-1.166 3.211,-1.05 l 1.078,0.084 z" /></g><g
           transform="translate(712.0314,415.3237)"
           id="g200"><path
             id="path202"
             style="fill:#ffffff;fill-opacity:1;fill-rule:nonzero;stroke:none"
             d="m 0,0 -2.588,-13.919 4.055,0.317 2.588,13.919 z" /></g><g
           transform="translate(723.6213,416.5709)"
           id="g204"><path
             id="path206"
             style="fill:#ffffff;fill-opacity:1;fill-rule:nonzero;stroke:none"
             d="m 0,0 c -1.658,-0.13 -3.033,-0.704 -4.125,-1.724 -1.092,-1.02 -1.797,-2.387 -2.116,-4.1 l -1.645,-8.851 4.055,0.317 0.616,3.314 1.169,0.091 0.682,3.671 -1.168,-0.091 0.322,1.734 c 0.179,0.965 0.585,1.472 1.218,1.522 0.326,0.025 0.533,-0.063 0.621,-0.263 0.087,-0.201 0.08,-0.574 -0.021,-1.117 l -1.621,-8.719 4.055,0.317 1.672,8.994 C 4.048,-3.11 3.912,-1.813 3.306,-1.013 2.7,-0.213 1.598,0.125 0,0" /></g><g
           transform="translate(735.5972,417.5065)"
           id="g208"><path
             id="path210"
             style="fill:#ffffff;fill-opacity:1;fill-rule:nonzero;stroke:none"
             d="M 0,0 C -1.545,-0.121 -2.87,-0.693 -3.976,-1.717 -5.082,-2.742 -5.782,-4.046 -6.077,-5.63 l -1.679,-9.035 4.055,0.317 1.653,8.892 c 0.158,0.85 0.523,1.297 1.096,1.342 0.593,0.046 0.81,-0.356 0.652,-1.205 l -1.653,-8.892 4.055,0.317 1.653,8.892 c 0.323,1.733 0.162,3.03 -0.482,3.891 C 2.629,-0.25 1.538,0.12 0,0" /></g><g
           transform="translate(745.7597,404.2419)"
           id="g212"><path
             id="path214"
             style="fill:#ffffff;fill-opacity:1;fill-rule:nonzero;stroke:none"
             d="m 0,0 4.055,0.317 1.673,8.994 c 0.333,1.795 0.197,3.092 -0.409,3.892 -0.606,0.8 -1.708,1.138 -3.306,1.013 -1.658,-0.13 -3.033,-0.704 -4.125,-1.724 -1.092,-1.02 -1.797,-2.387 -2.115,-4.1 l -1.646,-8.851 4.055,0.317 0.616,3.314 1.169,0.091 0.682,3.671 -1.168,-0.091 0.322,1.734 c 0.18,0.965 0.586,1.472 1.218,1.522 C 1.347,10.124 1.554,10.036 1.642,9.836 1.729,9.635 1.722,9.262 1.621,8.719 Z" /></g><g
           transform="translate(696.6889,388.2331)"
           id="g216"><path
             id="path218"
             style="fill:#ffffff;fill-opacity:1;fill-rule:nonzero;stroke:none"
             d="M 0,0 C 0.164,0.884 0.598,1.661 1.3,2.332 2.002,3.004 2.769,3.372 3.602,3.437 4.441,3.502 5.094,3.247 5.561,2.67 6.028,2.094 6.179,1.36 6.013,0.47 5.847,-0.421 5.415,-1.2 4.717,-1.867 4.019,-2.535 3.25,-2.902 2.411,-2.967 1.586,-3.032 0.936,-2.774 0.463,-2.195 -0.01,-1.615 -0.164,-0.884 0,0 m 1.647,-7.076 c 1.991,0.155 3.814,0.997 5.47,2.527 1.656,1.53 2.673,3.311 3.051,5.343 0.372,1.999 0,3.662 -1.115,4.988 C 7.938,7.108 6.415,7.696 4.484,7.546 2.446,7.386 0.592,6.545 -1.079,5.021 -2.751,3.497 -3.776,1.715 -4.155,-0.325 c -0.375,-2.019 0.003,-3.687 1.136,-5.006 1.133,-1.318 2.688,-1.9 4.666,-1.745" /></g><g
           transform="translate(713.8333,396.4261)"
           id="g220"><path
             id="path222"
             style="fill:#ffffff;fill-opacity:1;fill-rule:nonzero;stroke:none"
             d="M 0,0 -4.055,-0.317 -5.716,-9.25 c -0.291,-1.563 -0.105,-2.753 0.557,-3.569 0.662,-0.816 1.732,-1.166 3.21,-1.05 l 1.079,0.084 0.751,4.038 -0.21,-0.016 c -0.599,-0.047 -0.981,0.029 -1.144,0.227 -0.163,0.198 -0.185,0.62 -0.065,1.266 z" /></g><g
           transform="translate(719.9363,390.7629)"
           id="g224"><path
             id="path226"
             style="fill:#ffffff;fill-opacity:1;fill-rule:nonzero;stroke:none"
             d="M 0,0 1.657,-7.448 6.211,-7.092 4.05,0.236 8.819,6.829 4.654,6.504 Z" /></g><g
           transform="translate(716.9197,396.6672)"
           id="g228"><path
             id="path230"
             style="fill:#ffffff;fill-opacity:1;fill-rule:nonzero;stroke:none"
             d="m 0,0 -2.588,-13.919 4.055,0.317 2.588,13.919 z" /></g><g
           transform="translate(730.1141,397.6981)"
           id="g232"><path
             id="path234"
             style="fill:#ffffff;fill-opacity:1;fill-rule:nonzero;stroke:none"
             d="m 0,0 -2.588,-13.919 4.055,0.317 2.588,13.919 z" /></g><g
           transform="translate(733.1308,391.7938)"
           id="g236"><path
             id="path238"
             style="fill:#ffffff;fill-opacity:1;fill-rule:nonzero;stroke:none"
             d="M 0,0 1.657,-7.448 6.211,-7.092 4.05,0.236 8.296,6.106 7.99,6.764 4.654,6.504 Z" /></g><g
           transform="translate(741.4271,397.8997)"
           id="g240"><path
             id="path242"
             style="fill:#ffffff;fill-opacity:1;fill-rule:nonzero;stroke:none"
             d="m 0,0 2.429,-5.228 -1.437,-7.729 4.055,0.316 1.437,7.73 L 11.49,1.58 7.455,1.265 5.034,-1.748 3.809,0.98 -0.306,0.658 v 0 l 0.829,0.065 z" /></g><g
           transform="translate(741.9502,398.6229)"
           id="g244"><path
             id="path246"
             style="fill:#ffffff;fill-opacity:1;fill-rule:nonzero;stroke:none"
             d="m 0,0 -0.829,-0.065 0.306,-0.658 z" /></g><g
           transform="translate(697.6745,399.0746)"
           id="g248"><path
             id="path250"
             style="fill:#ffffff;fill-opacity:1;fill-rule:nonzero;stroke:none"
             d="m 0,0 c -0.465,-0.432 -0.752,-0.937 -0.859,-1.515 -0.111,-0.595 -0.014,-1.07 0.291,-1.425 0.305,-0.355 0.749,-0.509 1.332,-0.464 0.561,0.044 1.076,0.279 1.546,0.706 0.469,0.427 0.757,0.923 0.862,1.49 C 3.277,-0.642 3.169,-0.17 2.846,0.21 2.523,0.589 2.084,0.757 1.53,0.713 0.975,0.67 0.465,0.432 0,0" /></g><g
           transform="translate(702.5793,396.5622)"
           id="g252"><path
             id="path254"
             style="fill:#ffffff;fill-opacity:1;fill-rule:nonzero;stroke:none"
             d="M 0,0 C 0.305,-0.355 0.749,-0.51 1.332,-0.464 1.892,-0.42 2.407,-0.185 2.877,0.242 3.347,0.669 3.634,1.165 3.74,1.731 3.845,2.298 3.736,2.77 3.413,3.15 3.091,3.529 2.652,3.696 2.097,3.653 1.543,3.61 1.033,3.372 0.568,2.94 0.102,2.508 -0.184,2.003 -0.291,1.425 -0.402,0.83 -0.305,0.355 0,0" /></g><g
           transform="translate(781.5207,231.5243)"
           id="g256"><path
             id="path258"
             style="fill:#ffffff;fill-opacity:1;fill-rule:nonzero;stroke:none"
             d="m 0,0 c 0.144,0.563 0.187,1.218 0.124,1.96 0,0.005 -0.003,0.011 -0.004,0.016 -0.065,0.746 -0.271,1.531 -0.571,2.333 -0.105,0.279 -0.271,0.563 -0.4,0.846 -0.245,0.535 -0.491,1.066 -0.817,1.605 -0.206,0.343 -0.453,0.676 -0.688,1.016 -0.33,0.478 -0.659,0.949 -1.038,1.418 -0.29,0.358 -0.598,0.697 -0.912,1.044 -0.233,0.26 -0.438,0.532 -0.683,0.784 -0.038,0.023 -0.076,0.031 -0.114,0.054 -3.414,3.477 -7.827,6.219 -11.286,6.28 -3.317,0.021 -4.905,-1.868 -4.312,-5.143 0.194,-1.071 0.673,-2.182 1.26,-3.295 -0.015,-0.009 -0.031,-0.017 -0.046,-0.025 0.185,-0.349 0.433,-0.695 0.651,-1.042 0.173,-0.277 0.323,-0.55 0.515,-0.824 0.467,-0.669 0.987,-1.324 1.55,-1.965 0.114,-0.131 0.221,-0.26 0.339,-0.389 0.617,-0.673 1.279,-1.318 1.973,-1.934 0.256,-0.227 0.524,-0.429 0.789,-0.646 0.511,-0.42 1.026,-0.824 1.56,-1.201 0.307,-0.216 0.612,-0.411 0.924,-0.611 0.524,-0.335 1.046,-0.639 1.578,-0.921 0.312,-0.166 0.618,-0.327 0.931,-0.473 0.565,-0.264 1.122,-0.474 1.68,-0.664 0.269,-0.092 0.538,-0.203 0.803,-0.277 0.809,-0.222 1.602,-0.377 2.356,-0.41 C -1.744,-2.527 -0.426,-1.668 0,0" /></g><g
           transform="translate(758.9617,208.7264)"
           id="g260"><path
             id="path262"
             style="fill:#ffffff;fill-opacity:1;fill-rule:nonzero;stroke:none"
             d="m 0,0 c 1.592,1.134 3.137,2.304 4.603,3.537 0.001,10e-4 0.002,10e-4 0.002,0.002 0,0 0,0 0,0 5.358,4.509 9.957,9.633 14.422,15.018 v 0.001 c -0.005,0.001 -0.01,0.002 -0.016,0.003 -1.198,0.181 -2.31,0.447 -3.376,0.761 -0.343,0.101 -0.661,0.228 -0.992,0.342 -0.71,0.246 -1.399,0.512 -2.051,0.816 -0.342,0.16 -0.675,0.329 -1.001,0.504 -0.61,0.326 -1.191,0.681 -1.75,1.059 -0.282,0.19 -0.571,0.372 -0.84,0.576 -0.648,0.488 -1.256,1.017 -1.838,1.576 -0.13,0.125 -0.276,0.234 -0.404,0.363 -0.69,0.699 -1.328,1.453 -1.929,2.247 -0.183,0.241 -0.347,0.503 -0.522,0.753 -0.409,0.581 -0.804,1.176 -1.173,1.8 -0.194,0.328 -0.379,0.666 -0.563,1.006 -0.962,1.773 -1.807,3.675 -2.535,5.716 -2.356,-2.621 -4.665,-5.244 -6.983,-7.851 0,0 -0.001,0 -0.001,0.001 -3.142,-3.535 -6.291,-7.031 -9.564,-10.403 -0.553,-0.57 -0.938,-1.103 -1.182,-1.615 -0.366,-0.769 -0.417,-1.49 -0.246,-2.218 0.113,-0.485 0.327,-0.973 0.61,-1.479 0.142,-0.253 0.302,-0.51 0.476,-0.774 2.514,-3.812 5.004,-7.641 7.554,-11.428 1.026,-1.524 2.182,-2.957 3.139,-4.24 1.77,0.986 3.432,2.053 5.047,3.154 C -0.739,-0.518 -0.366,-0.261 0,0" /></g><g
           transform="translate(722.4248,168.6763)"
           id="g264"><path
             id="path266"
             style="fill:#ffffff;fill-opacity:1;fill-rule:nonzero;stroke:none"
             d="m 0,0 c 3.561,3.781 7.195,7.493 10.759,11.271 0.15,0.158 0.321,0.336 0.491,0.522 0.171,0.187 0.341,0.382 0.488,0.576 0.295,0.388 0.497,0.771 0.432,1.07 -0.098,0.449 -0.143,0.866 -0.142,1.255 0.002,0.779 0.187,1.447 0.487,2.05 0.3,0.603 0.717,1.142 1.183,1.66 0.698,0.777 1.509,1.51 2.205,2.35 0.671,0.809 1.58,1.668 2.34,2.592 0.508,0.617 0.95,1.262 1.213,1.942 0.393,1.019 0.383,2.116 -0.415,3.304 -0.358,0.533 -0.73,1.057 -1.104,1.578 l -0.118,0.107 C 14.588,34.757 10.83,38.892 7.265,43.249 6.337,42.286 5.452,41.376 4.598,40.5 4.472,40.371 4.354,40.248 4.23,40.121 1.636,37.461 -0.66,35.117 -2.869,32.71 -3.731,31.77 -4.576,30.814 -5.431,29.868 v 0 c -4.061,-4.494 -8.075,-9.031 -12.166,-13.498 -0.578,-0.631 -1.025,-1.268 -1.344,-1.914 -0.96,-1.939 -0.781,-3.961 0.418,-6.145 2.736,-4.983 6.766,-8.338 12.217,-10.058 0.643,-0.203 1.248,-0.315 1.822,-0.341 0.555,-0.016 1.082,0.044 1.584,0.187 1.049,0.3 1.997,0.942 2.9,1.901" /></g><g
           transform="translate(703.9015,176.9872)"
           id="g268"><path
             id="path270"
             style="fill:#ffffff;fill-opacity:1;fill-rule:nonzero;stroke:none"
             d="m 0,0 c -1.199,2.184 -1.378,4.206 -0.418,6.145 0.32,0.646 0.767,1.284 1.344,1.914 4.091,4.467 8.105,9.004 12.166,13.498 h 10e-4 c 0.855,0.946 1.699,1.902 2.562,2.842 2.208,2.407 4.504,4.751 7.098,7.411 0.124,0.128 0.243,0.25 0.369,0.379 0.854,0.877 1.738,1.786 2.667,2.749 -0.014,0.016 -0.028,0.033 -0.042,0.05 -0.947,-0.982 -1.846,-1.907 -2.716,-2.799 -0.126,-0.129 -0.244,-0.251 -0.368,-0.379 -2.594,-2.66 -4.89,-5.004 -7.099,-7.411 -0.862,-0.94 -1.707,-1.896 -2.562,-2.842 v 0 C 8.941,17.063 4.927,12.526 0.836,8.059 0.258,7.429 -0.189,6.791 -0.508,6.145 -1.468,4.206 -1.289,2.184 -0.09,0 c 2.736,-4.983 6.766,-8.338 12.217,-10.058 0.651,-0.206 1.263,-0.319 1.843,-0.343 0.024,-10e-4 0.046,0.003 0.07,0.002 -0.575,0.026 -1.18,0.138 -1.822,0.341 C 6.766,-8.338 2.736,-4.983 0,0" /></g><g
           transform="translate(774.5241,229.7471)"
           id="g272"><path
             id="path274"
             style="fill:#ffffff;fill-opacity:1;fill-rule:nonzero;stroke:none"
             d="M 0,0 C -0.559,0.19 -1.115,0.4 -1.681,0.664 -1.994,0.81 -2.299,0.971 -2.612,1.137 -3.143,1.419 -3.665,1.724 -4.189,2.059 -4.502,2.258 -4.806,2.453 -5.114,2.669 -5.648,3.046 -6.162,3.45 -6.673,3.87 -6.938,4.088 -7.206,4.289 -7.463,4.516 -8.157,5.132 -8.818,5.777 -9.435,6.45 -9.553,6.579 -9.66,6.709 -9.774,6.839 c -0.563,0.641 -1.084,1.296 -1.55,1.965 -0.192,0.274 -0.343,0.548 -0.516,0.824 -0.217,0.348 -0.466,0.693 -0.65,1.042 0.015,0.008 0.031,0.016 0.046,0.025 -0.587,1.113 -1.066,2.224 -1.26,3.295 -0.593,3.275 0.995,5.164 4.311,5.143 -0.008,0 -0.016,0.002 -0.024,0.002 -3.363,0.047 -4.975,-1.848 -4.377,-5.145 0.194,-1.071 0.672,-2.182 1.26,-3.295 -0.016,-0.009 -0.031,-0.017 -0.047,-0.025 0.185,-0.349 0.433,-0.694 0.651,-1.042 0.173,-0.276 0.323,-0.55 0.515,-0.824 0.467,-0.669 0.987,-1.324 1.55,-1.965 0.115,-0.13 0.221,-0.26 0.34,-0.389 0.616,-0.673 1.278,-1.318 1.972,-1.934 0.256,-0.227 0.525,-0.428 0.789,-0.646 0.512,-0.42 1.026,-0.824 1.56,-1.201 0.307,-0.216 0.612,-0.411 0.925,-0.61 0.524,-0.335 1.045,-0.64 1.577,-0.922 C -2.39,0.971 -2.084,0.81 -1.771,0.664 -1.205,0.4 -0.649,0.19 -0.09,0 0.179,-0.092 0.447,-0.203 0.713,-0.276 1.526,-0.501 2.324,-0.657 3.083,-0.688 3.11,-0.689 3.133,-0.686 3.159,-0.687 2.404,-0.654 1.611,-0.499 0.803,-0.276 0.538,-0.203 0.269,-0.092 0,0" /></g><g
           transform="translate(742.1088,220.4675)"
           id="g276"><path
             id="path278"
             style="fill:#ffffff;fill-opacity:1;fill-rule:nonzero;stroke:none"
             d="m 0,0 c -0.174,0.264 -0.334,0.521 -0.476,0.774 -0.284,0.506 -0.497,0.994 -0.61,1.479 -0.172,0.727 -0.121,1.449 0.246,2.218 0.244,0.512 0.629,1.045 1.182,1.615 3.273,3.372 6.422,6.868 9.564,10.403 0,-0.001 10e-4,-0.001 10e-4,-0.001 2.318,2.607 4.627,5.23 6.983,7.851 -0.009,0.024 -0.019,0.047 -0.027,0.071 -2.378,-2.645 -4.708,-5.292 -7.046,-7.922 -10e-4,0 -10e-4,0 -0.002,0.001 C 6.674,12.954 3.525,9.458 0.251,6.086 -0.302,5.516 -0.686,4.983 -0.93,4.471 -1.297,3.702 -1.348,2.98 -1.177,2.253 -1.063,1.768 -0.85,1.28 -0.566,0.774 -0.424,0.521 -0.264,0.264 -0.09,0 c 2.514,-3.812 5.003,-7.641 7.554,-11.429 1.035,-1.537 2.204,-2.983 3.166,-4.275 0.021,0.012 0.042,0.024 0.063,0.036 -0.957,1.283 -2.113,2.716 -3.139,4.239 C 5.004,-7.641 2.514,-3.812 0,0" /></g><g
           transform="translate(682.9656,575.602)"
           id="g280"><path
             id="path282"
             style="fill:#000000;fill-opacity:1;fill-rule:nonzero;stroke:none"
             d="m 0,0 c 0,0 0,-0.001 0.001,-0.001 0.002,-0.002 0.002,-0.004 0.004,-0.006 -0.001,0 -0.001,0 -0.002,-0.001 C 0.002,-0.007 0.001,-0.006 0,-0.005 0.001,-0.003 0,-0.002 0,0 m -2.289,3.366 c 0.01,0.005 0.021,0.008 0.03,0.012 0.018,-0.031 0.048,-0.053 0.063,-0.087 0.014,-0.045 0.048,-0.077 0.063,-0.121 -0.034,-0.049 -0.064,-0.099 -0.1,-0.147 -0.012,0.119 -0.056,0.216 -0.056,0.343 m 126.303,-333.08 c 4.496,9.604 8.535,19.297 11.007,29.794 2.098,8.907 6.886,17.151 9.999,25.861 1.179,3.299 1.228,7.069 1.391,10.643 0.107,2.349 -0.732,4.731 -0.741,7.099 -0.017,4.35 0.541,8.715 0.331,13.047 -0.151,3.128 -0.354,6.719 -1.927,9.229 -5.583,8.91 -7.958,18.294 -6.412,28.714 0.855,5.76 -0.043,11.106 -3.864,15.837 -1.849,2.289 -3.301,4.928 -4.736,7.518 -5.776,10.415 -9.266,21.419 -10.453,33.423 -1.144,11.571 -6.313,21.694 -16.71,27.79 -6.22,3.647 -12.713,7.277 -20.315,7.694 -1.407,0.077 -2.798,0.825 -4.159,1.361 -4.543,1.787 -9.075,3.604 -13.6,5.437 -4.842,1.961 -9.782,3.732 -14.445,6.057 -1.581,0.788 -2.432,3.021 -3.649,4.568 -0.757,0.963 -1.494,1.963 -2.379,2.801 -5.311,5.028 -10.623,10.055 -16.014,14.998 -1.982,1.817 -2.965,3.727 -2.853,5.875 -4.306,1.104 -8.49,1.79 -12.561,2.196 -0.138,0.378 -0.341,0.671 -0.74,0.789 -0.421,-0.02 -0.843,-0.04 -1.265,-0.061 0.227,-0.291 0.509,-0.462 0.805,-0.606 -19.087,1.621 -35.282,-3.659 -46.518,-9.198 0.068,1.326 -0.534,6.135 -0.871,6.97 -1.276,3.169 -2.413,6.381 -4.174,9.358 -1.185,2.003 -2.1,4.222 -2.781,6.452 -0.799,2.616 -1.214,5.348 -1.796,8.03 0.796,0.927 1.592,0.866 2.388,0 -0.311,-1.25 1.147,-1.677 1.386,-2.753 -0.094,1.603 0.661,2.477 2.283,2.707 -0.021,-1.439 0.716,-2.662 0.313,-4.349 -0.536,-2.247 0.707,-5.707 -0.934,-8.15 -0.066,-0.099 1.391,0.457 1.392,0.117 0.01,-2.915 0.418,0.188 0.435,0.327 0.325,2.667 3.76,3.741 3.501,6.787 -0.027,0.306 0.152,2.923 2.095,1.188 0.501,-0.447 0.718,0.272 1.004,0.508 0.978,0.808 1.916,1.663 2.87,2.5 0.527,0.003 1.054,0.006 1.581,0.009 1.14,-2.184 2.332,-0.237 3.503,-0.044 1.497,-1.428 3.285,0.553 4.822,-0.408 1.922,0.369 3.832,0.945 5.77,1.063 3.876,0.234 3.964,0.053 4.096,-3.858 -0.49,-0.593 -0.728,-1.475 -0.041,-1.753 0.568,-0.23 0.545,0.718 0.606,1.23 0.198,0.963 0.249,1.956 0.387,2.905 0.138,0.954 0.096,2.529 1.818,2.556 1.688,0.027 3.377,0.036 5.065,0.053 2.057,-0.048 1.376,-2.408 2.703,-3.229 0.027,0.47 0.03,0.834 0.071,1.193 0.261,2.246 1.999,3.035 3.802,3.545 1.82,0.515 2.519,-0.933 3.2,-2.251 0.468,-0.905 1.378,-1.727 1.699,-2.453 0.651,-1.473 2.883,-1.391 2.791,-2.694 -0.111,-1.575 -2.309,-0.55 -3.259,-1.574 -0.259,-0.28 -1.712,0.248 -1.483,0.733 0.67,1.415 -0.855,1.201 -1.131,1.855 -0.1,0.237 0.135,1.125 -0.691,0.592 -0.548,-0.353 -0.204,-0.706 -0.023,-1.103 0.462,-1.008 1.396,-1.817 1.332,-3.048 1.018,0.173 1.27,-0.537 1.603,-1.315 0.566,-1.321 1.549,0.047 2.321,-0.231 0.147,-0.053 2.887,-1.142 2.526,-0.571 -1.018,1.605 0.007,3.608 1.522,2.602 0.597,-0.397 2.933,-2.438 3.551,-2.085 -4.164,5.969 -6.274,8.639 -4.687,10.968 0.104,-1.466 2.539,-1.531 1.81,-3.415 -0.16,-0.412 -0.885,-0.763 -0.204,-1.312 0.724,1.177 2.457,-2.705 3.081,-1.791 0.347,0.509 3.297,3.624 2.304,3.818 -0.173,0.034 -4.012,0.14 -4.003,0.451 0.061,2.069 1.155,2.964 -0.916,3.038 -0.619,0.023 -3.236,1.215 -2.791,1.256 1.985,0.183 1.494,2.683 3.136,3.01 1.939,0.024 3.287,1.368 4.876,2.172 0.324,-0.665 0.649,-1.33 0.994,-2.037 0.366,0.707 0.213,1.388 0.117,2.066 -0.213,1.435 1.627,1.558 1.774,2.763 0.178,0.192 0.357,0.384 0.535,0.576 1.337,1.811 3.843,2.793 3.918,5.498 0.175,3.848 1.705,7.441 2.172,11.207 0.294,2.368 1.136,3.964 3.012,5.443 2.368,1.867 5.086,3.841 3.664,7.635 -0.934,0.94 0.241,3.354 -2.253,3.204 -3.189,1.438 -3.244,1.496 -3.325,3.495 0.886,-0.262 0.583,-2.279 2.326,-1.488 C 34.437,0.108 34.045,1.122 32.671,0.975 31.067,2.357 31.1,1.185 31.182,-0.012 29.32,0.494 28.203,2.209 26.141,2.554 25.114,2.726 23.006,3.092 23.054,5.184 22.057,5.429 21.375,4.201 20.1,4.847 18.43,5.693 15.891,6.807 17.141,2.841 17.229,2.559 16.744,2.097 16.502,1.68 15.688,3.064 14.532,3.816 13.066,4.121 12.573,2.178 15.108,2.589 15.323,1.525 14.153,-0.023 13.72,0.798 12.737,1.771 10.926,3.563 10.425,7.201 6.68,6.549 5.816,4.443 3.568,5.553 2.379,4.775 0.913,3.814 0.02,3.89 -0.801,5.01 -1.75,6.305 -2.999,6.463 -4.358,6.556 c -0.004,0.02 0.023,0.045 0.012,0.064 -0.03,-0.011 -0.056,0.002 -0.086,-0.007 -0.025,0.385 0.832,0.807 0.199,0.978 -1.872,0.506 -3.16,1.962 -4.963,2.666 1.02,0.36 2.195,0.288 2.632,1.542 -5.545,0.946 -5.545,0.946 -7.137,-1.799 2.541,-0.179 5.079,-0.34 6.557,-2.832 -0.016,0 -0.03,0.009 -0.045,0.008 C -7.202,7.15 -7.217,7.137 -7.23,7.113 -8.473,6.958 -9.844,7.679 -10.949,6.58 c -0.037,0.017 -0.074,0.034 -0.111,0.05 l 0.058,-0.083 c 0.002,0.003 0.006,0.002 0.008,0.005 0.072,-0.076 0.1,-0.137 0.082,-0.184 -0.03,0.06 -0.061,0.119 -0.09,0.179 -1.579,-0.481 -3.338,1.437 -5.19,-0.804 2.686,0.23 3.947,-1.599 5.566,-2.923 -1.082,-1.079 -3.22,-0.999 -3.458,-0.428 -1.336,3.197 -2.567,1.369 -3.947,0.212 -1.849,-1.55 -4.306,0.053 -6.15,-1.428 -0.427,1.659 0.673,1.922 1.535,2.384 0.805,0.43 1.939,0.644 1.508,1.962 -3.022,-2.212 -6.689,-3.542 -9.007,-6.724 -0.85,-1.169 -1.877,-2.239 -2.974,-3.18 -0.278,-0.238 -0.981,-1.201 -1.574,-0.322 -0.386,0.571 -0.174,1.316 0.485,1.643 1.083,0.537 1.961,1.245 2.647,2.392 -3.163,0.25 -3.671,-4.503 -7.104,-3.577 0.041,1.37 1.256,1.652 2.251,2.536 -0.776,0 -1.599,0.198 -1.746,-0.032 -1.264,-1.983 -4.476,-2.225 -5.029,-3.937 -0.727,-2.249 -2.566,-2.833 -3.756,-4.249 -0.822,-2.446 -3.669,-1.268 -5.024,-2.801 -1.622,-1.835 -5.01,-0.847 -6.021,-3.7 -0.368,-1.129 -2.208,-1.469 -1.668,-3.086 0.012,-2.23 -0.906,-4.378 0.174,-6.71 2.16,-4.668 5.608,-8.384 8.614,-12.432 1.137,-2.261 1.388,-4.738 1.753,-7.186 -0.229,-6.088 1.964,-11.722 3.47,-17.457 0.954,-3.629 3.432,-6.812 3.308,-10.828 -0.008,-0.269 0.868,-1.857 2.202,-0.53 0.842,0.839 0.71,1.867 1.078,2.766 1.232,-0.529 1.753,-6.164 3.104,-7.034 -1.109,-0.548 -2.184,-1.098 -3.192,-1.645 1.139,-3.797 0.219,-7.131 -2.849,-9.721 -4.419,-3.732 -9.098,-7.155 -13.642,-10.741 -0.984,-0.777 -1.797,-1.781 -2.811,-2.511 -3.77,-2.712 -7.324,-5.906 -11.451,-7.903 -7.894,-3.819 -16.192,-6.792 -24.188,-10.417 -3.924,-1.779 -8.661,-3.385 -11.056,-6.561 -4.123,-5.465 -7.82,-11.782 -9.66,-18.315 -2.617,-9.29 -3.407,-19.096 -4.946,-28.687 -0.524,-3.273 -1.452,-6.581 -1.332,-9.841 0.468,-12.797 0.73,-25.642 2.16,-38.346 0.947,-8.417 0.672,-17.136 4.246,-25.218 1.104,-2.496 1.248,-5.512 1.402,-8.313 0.266,-4.875 1.571,-9.06 5.269,-12.582 2.239,-2.133 3.982,-4.904 5.529,-7.627 5.247,-9.236 10.377,-18.542 15.376,-27.914 0.91,-1.705 1.333,-3.842 1.378,-5.793 0.052,-2.25 -0.8,-4.51 -0.852,-6.775 -0.27,-11.819 -0.545,-23.642 -0.552,-35.463 -19.131,9.44 -36.813,22.012 -52.341,37.539 -37.262,37.263 -57.783,86.805 -57.783,139.501 0,52.696 20.521,102.239 57.783,139.501 37.263,37.262 86.805,57.783 139.501,57.783 52.697,0 102.239,-20.521 139.501,-57.783 37.262,-37.262 57.783,-86.805 57.783,-139.501 0,-52.696 -20.521,-102.238 -57.783,-139.501 -4.959,-4.958 -10.149,-9.598 -15.521,-13.954 m -27.94,123.725 c -1.647,-0.474 -3.35,-0.965 -4.81,-1.57 -3.65,-1.51 -3.325,-5.335 -2.985,-7.007 0.554,-0.139 0.57,-0.584 0.089,-4.824 -0.077,-0.685 1.468,-0.958 1.778,-1.006 0.684,-0.105 1.267,-0.512 1.6,-1.116 0.631,-1.143 1.683,-4.094 -2.17,-6.807 -3.901,-2.747 -0.522,-8.132 -0.11,-8.756 5.152,-4.998 7.086,-8.198 6.269,-10.373 -0.701,-1.87 -3.238,-2.783 -8.481,-3.053 -1.666,-0.086 -3.028,-0.745 -4.161,-2.016 -3.433,-3.847 -3.424,-11.961 -3.364,-13.996 1.601,-0.402 6.248,-1.777 7.296,-4.432 0.41,-1.038 0.234,-2.118 -0.522,-3.211 -2.04,-2.945 -3.048,-2.928 -4.712,-2.209 -0.771,0.333 -1.642,0.71 -3.141,0.573 -0.675,-0.061 -1.196,-0.454 -1.594,-1.201 -1.519,-2.857 -0.554,-9.899 1.302,-13.273 2.629,-4.778 -3.373,-10.048 -3.63,-10.27 l -0.237,-0.205 -0.306,0.062 c -0.314,0.062 -7.761,1.394 -9.95,-9.101 -1.992,-9.544 -5.86,-15.521 -7.144,-17.31 5.649,-0.268 14.364,-2.547 17.012,-3.27 -0.344,-0.343 -0.686,-0.692 -1.027,-1.047 -3.383,0.899 -11.882,3.022 -16.854,3.068 l 10e-4,0.14 -0.928,0.515 0.388,0.699 -0.066,0.045 1.549,2.744 c 0.645,1.139 1.067,1.885 1.366,2.36 0.115,0.21 0.159,0.294 0.172,0.321 l 0.032,-0.015 c 0.125,0.177 0.224,0.292 0.312,0.36 1.399,2.886 2.927,6.813 3.937,11.651 2.181,10.454 9.456,10.312 11.114,10.137 0.98,0.926 5.031,5.065 3.14,8.501 -1.845,3.355 -3.208,10.916 -1.31,14.487 0.598,1.125 1.499,1.773 2.605,1.874 1.822,0.164 2.943,-0.32 3.762,-0.674 1.115,-0.481 1.49,-0.642 3.158,1.765 0.505,0.73 0.631,1.389 0.384,2.015 -0.804,2.04 -5.226,3.411 -6.862,3.767 l -0.471,0.103 -0.03,0.481 c -0.028,0.431 -0.613,10.599 3.664,15.394 1.354,1.518 3.053,2.34 5.05,2.442 4.533,0.234 6.869,0.941 7.351,2.227 0.591,1.574 -1.432,4.621 -6.011,9.055 l -0.083,0.099 c -1.642,2.403 -3.673,7.706 0.395,10.57 2.756,1.941 2.493,3.87 1.788,5.147 -0.141,0.255 -0.388,0.428 -0.677,0.472 -2.773,0.426 -2.918,1.828 -2.852,2.412 0.176,1.553 0.263,2.493 0.304,3.063 l -0.138,0.428 c -0.784,2.416 -1.059,7.484 3.509,9.374 1.528,0.632 3.265,1.133 4.945,1.618 3.864,1.114 7.514,2.167 7.109,4.376 -0.05,0.275 -0.177,0.444 -0.426,0.566 -1.84,0.906 -8.022,-1.586 -11.486,-3.369 l -0.353,-0.182 -0.32,0.238 c -0.117,0.086 -2.87,2.167 -2.91,5.339 -0.027,2.194 1.241,4.308 3.768,6.284 1.646,1.288 2.43,2.684 2.329,4.151 -0.251,3.633 -5.61,6.783 -5.664,6.815 l -0.097,0.056 -0.072,0.087 c -0.723,0.865 -2.541,14.723 -4.863,37.07 l 1.269,0.132 c 3.141,-30.224 4.336,-35.491 4.6,-36.36 1.055,-0.649 5.827,-3.795 6.099,-7.709 0.134,-1.917 -0.814,-3.682 -2.815,-5.247 -2.193,-1.715 -3.296,-3.483 -3.278,-5.254 0.021,-1.989 1.468,-3.517 2.103,-4.092 1.957,0.977 9.478,4.55 12.254,3.186 0.608,-0.299 0.995,-0.811 1.118,-1.481 0.612,-3.345 -3.577,-4.553 -8.011,-5.833 m 2.571,-138.089 c -0.431,-1.689 -1.774,-2.552 -3.913,-2.465 -0.005,0 -0.01,0.001 -0.014,0.001 -0.027,10e-4 -0.05,-0.002 -0.076,-0.001 -0.759,0.031 -1.557,0.187 -2.371,0.412 -0.265,0.073 -0.534,0.184 -0.803,0.276 -0.559,0.19 -1.115,0.4 -1.681,0.664 -0.313,0.146 -0.618,0.307 -0.931,0.473 -0.531,0.282 -1.053,0.587 -1.577,0.922 -0.313,0.199 -0.617,0.394 -0.925,0.611 -0.534,0.376 -1.048,0.78 -1.559,1.2 -0.265,0.218 -0.533,0.419 -0.789,0.646 -0.695,0.616 -1.356,1.261 -1.973,1.934 -0.118,0.129 -0.225,0.259 -0.339,0.389 -0.563,0.641 -1.084,1.297 -1.55,1.965 -0.192,0.274 -0.342,0.548 -0.516,0.824 -0.217,0.348 -0.465,0.693 -0.65,1.042 0.015,0.009 0.031,0.016 0.046,0.025 -0.587,1.113 -1.066,2.225 -1.26,3.295 -0.597,3.297 1.015,5.192 4.377,5.145 0.008,0 0.017,-10e-4 0.025,-0.002 0.022,0 0.043,0.002 0.066,0.002 3.462,-0.049 7.889,-2.796 11.31,-6.282 0.038,-0.022 0.076,-0.031 0.114,-0.053 0.245,-0.253 0.45,-0.525 0.683,-0.784 0.314,-0.348 0.622,-0.687 0.912,-1.045 0.379,-0.468 0.708,-0.939 1.038,-1.417 0.235,-0.341 0.482,-0.674 0.688,-1.017 0.326,-0.539 0.573,-1.07 0.817,-1.605 0.129,-0.283 0.296,-0.566 0.4,-0.846 0.3,-0.802 0.507,-1.587 0.571,-2.333 0.001,-0.005 0.004,-0.011 0.004,-0.016 0.063,-0.742 0.02,-1.397 -0.124,-1.96 m -3.531,-4.24 c -4.465,-5.385 -9.065,-10.509 -14.423,-15.019 0,0 0,0 0,0 0,0 -0.001,-0.001 -0.002,-0.002 -1.466,-1.233 -3.01,-2.403 -4.603,-3.537 -0.366,-0.261 -0.738,-0.517 -1.112,-0.772 -1.635,-1.115 -3.316,-2.195 -5.111,-3.19 -0.008,0.011 -0.018,0.024 -0.027,0.036 -0.021,-0.012 -0.042,-0.025 -0.063,-0.036 -0.962,1.291 -2.131,2.738 -3.166,4.275 -2.551,3.787 -5.04,7.616 -7.554,11.429 -0.174,0.263 -0.334,0.521 -0.476,0.774 -0.284,0.505 -0.497,0.993 -0.611,1.478 -0.171,0.728 -0.12,1.45 0.247,2.219 0.244,0.512 0.629,1.045 1.181,1.614 3.274,3.372 6.423,6.869 9.565,10.403 0,0 10e-4,0 10e-4,-10e-4 2.338,2.631 4.668,5.278 7.046,7.923 0.008,-0.024 0.018,-0.047 0.027,-0.071 0.021,0.023 0.042,0.047 0.063,0.071 0.735,-2.069 1.589,-3.994 2.562,-5.788 0.184,-0.339 0.369,-0.677 0.563,-1.006 0.37,-0.624 0.765,-1.218 1.173,-1.799 0.175,-0.25 0.339,-0.512 0.522,-0.754 0.602,-0.794 1.24,-1.547 1.93,-2.247 0.127,-0.128 0.274,-0.237 0.404,-0.363 0.581,-0.558 1.19,-1.088 1.837,-1.576 0.27,-0.203 0.559,-0.385 0.84,-0.576 0.559,-0.378 1.14,-0.733 1.75,-1.059 0.326,-0.175 0.659,-0.344 1.001,-0.503 0.652,-0.304 1.342,-0.571 2.052,-0.816 0.331,-0.114 0.648,-0.242 0.992,-0.343 1.065,-0.313 2.178,-0.579 3.375,-0.76 0.006,-10e-4 0.011,-0.003 0.017,-0.004 z m -9.629,-17.329 c 0.458,-0.771 0.858,-1.504 1.145,-2.28 1.406,-3.801 0.465,-6.558 -2.376,-7.837 -0.947,-0.427 -2.106,-0.689 -3.459,-0.771 -2.519,-0.153 -5.01,-0.804 -7.528,-0.905 -0.812,-0.032 -2.199,0.845 -2.363,1.534 -0.051,0.212 -0.049,0.486 -0.01,0.778 0.08,0.586 0.312,1.248 0.583,1.654 0.135,0.203 0.28,0.342 0.421,0.374 3.107,0.715 4.857,3.012 6.686,5.197 1.098,1.311 2.225,2.581 3.691,3.445 0.234,0.137 0.451,0.303 0.716,0.516 0.265,0.213 0.577,0.473 1,0.801 0.52,-0.926 1.036,-1.735 1.494,-2.506 m -3.903,-16.464 c -0.049,-0.495 -0.24,-1.055 -0.507,-1.473 -0.134,-0.21 -0.286,-0.383 -0.449,-0.496 -0.663,-0.46 -1.393,-0.882 -2.154,-1.222 -0.761,-0.341 -1.553,-0.601 -2.343,-0.739 -1.297,-0.227 -2.613,-0.37 -3.935,-0.461 -1.322,-0.092 -2.65,-0.13 -3.97,-0.148 -0.237,-0.003 -0.509,0.019 -0.788,0.065 -0.836,0.138 -1.735,0.484 -1.935,0.958 -0.193,0.456 -0.262,1.161 -0.207,1.802 0.028,0.32 0.087,0.625 0.176,0.873 0.09,0.249 0.211,0.442 0.362,0.54 1.701,1.104 3.733,1.749 5.7,2.364 0.201,0.063 0.413,0.092 0.616,0.1 0.205,0.008 0.401,-0.006 0.572,-0.026 0.171,-0.022 0.317,-0.05 0.42,-0.074 0.103,-0.023 0.161,-0.041 0.159,-0.041 0.649,0.017 1.242,0.043 1.792,0.07 1.102,0.053 2.033,0.108 2.899,0.096 0.433,-0.006 0.851,-0.028 1.265,-0.075 0.423,-0.049 0.945,-0.243 1.386,-0.508 0.221,-0.133 0.421,-0.283 0.578,-0.442 0.157,-0.159 0.272,-0.327 0.32,-0.495 0.053,-0.178 0.059,-0.397 0.04,-0.628 -10e-4,-0.014 0.004,-0.025 0.003,-0.04 m -19.33,-7.37 c -0.282,-0.201 -0.541,-0.369 -0.787,-0.486 -0.247,-0.117 -0.481,-0.183 -0.715,-0.183 -0.631,10e-4 -1.718,0.819 -2.174,1.368 -0.151,0.184 -0.233,0.337 -0.205,0.42 0.487,1.432 1.493,2.687 2.309,4.006 0.244,-0.243 0.488,-0.487 0.743,-0.741 0.254,-0.255 0.52,-0.521 0.809,-0.809 0.577,-0.577 1.244,-1.243 2.091,-2.089 -0.848,-0.544 -1.507,-1.083 -2.071,-1.486 m -4.459,5.902 c -0.761,-0.925 -1.669,-1.784 -2.34,-2.593 -0.697,-0.84 -1.507,-1.572 -2.206,-2.35 -0.466,-0.518 -0.882,-1.056 -1.182,-1.659 -0.301,-0.604 -0.486,-1.272 -0.488,-2.05 -10e-4,-0.389 0.044,-0.806 0.143,-1.256 0.065,-0.298 -0.138,-0.682 -0.433,-1.07 -0.146,-0.194 -0.316,-0.389 -0.487,-0.575 -0.17,-0.187 -0.341,-0.364 -0.492,-0.523 -3.564,-3.777 -7.198,-7.49 -10.759,-11.271 -0.902,-0.958 -1.851,-1.601 -2.899,-1.9 -0.524,-0.15 -1.073,-0.215 -1.654,-0.19 -0.006,0 -0.014,0.002 -0.021,0.002 -0.023,0.001 -0.045,-0.003 -0.069,-0.002 -0.58,0.024 -1.193,0.138 -1.843,0.343 -5.451,1.721 -9.481,5.075 -12.217,10.058 -1.2,2.184 -1.379,4.206 -0.418,6.145 0.319,0.647 0.766,1.284 1.344,1.915 4.091,4.466 8.105,9.003 12.166,13.497 v 0 c 0.855,0.946 1.7,1.902 2.562,2.842 2.209,2.408 4.504,4.751 7.098,7.411 0.125,0.128 0.243,0.25 0.369,0.379 0.87,0.892 1.769,1.817 2.716,2.799 0.014,-0.017 0.028,-0.033 0.042,-0.05 0.016,0.017 0.032,0.033 0.048,0.05 3.577,-4.376 7.352,-8.524 10.596,-13.022 l 0.117,-0.106 c 0.375,-0.522 0.747,-1.046 1.105,-1.579 0.798,-1.188 0.808,-2.284 0.414,-3.304 -0.263,-0.679 -0.705,-1.325 -1.212,-1.941 m -0.901,-9.941 c -0.993,0.294 -2.186,0.355 -2.904,0.971 -0.108,0.092 -0.169,0.239 -0.201,0.42 -0.094,0.543 0.076,1.396 0.059,2.031 0.341,0.073 0.683,0.145 1.024,0.218 0.787,-0.959 1.573,-1.918 2.358,-2.877 -0.112,-0.255 -0.224,-0.509 -0.336,-0.763 m -36.561,10.527 c -0.488,-0.04 -1.011,0.093 -1.584,0.41 -0.86,0.474 -1.835,1.358 -2.984,2.683 0.384,-0.103 0.671,-0.082 0.929,-0.024 0.068,0.018 0.144,0.025 0.204,0.052 0.187,0.078 0.336,0.204 0.464,0.354 0.095,0.115 0.18,0.243 0.253,0.385 0.752,1.483 0.405,4.225 3.242,2.292 0.187,1.715 0.356,3.27 0.567,5.208 0.373,-0.245 0.645,-0.424 0.942,-0.62 0.638,-0.419 1.202,-0.79 1.788,-1.176 0.116,0.535 0.256,0.836 0.23,1.122 -0.009,0.096 -0.036,0.199 -0.05,0.298 -0.125,0.872 -0.408,1.815 -0.438,2.63 -0.003,0.063 -0.016,0.131 -0.016,0.192 0.006,0.306 0.053,0.592 0.177,0.84 0.796,1.594 2.267,2.554 3.84,2.366 0.524,-0.062 1.06,-0.252 1.585,-0.589 0.297,-0.19 0.521,-0.393 0.707,-0.603 0.059,-0.067 0.097,-0.136 0.145,-0.205 0.106,-0.148 0.2,-0.297 0.262,-0.451 0.033,-0.081 0.057,-0.162 0.079,-0.244 0.04,-0.15 0.065,-0.3 0.073,-0.453 0.004,-0.083 0.011,-0.165 0.007,-0.248 -0.007,-0.162 -0.033,-0.324 -0.068,-0.487 -0.015,-0.073 -0.022,-0.144 -0.042,-0.217 -0.062,-0.223 -0.141,-0.445 -0.236,-0.664 -0.053,-0.122 -0.116,-0.238 -0.175,-0.358 -0.049,-0.096 -0.094,-0.194 -0.146,-0.288 -0.276,-0.51 -0.583,-0.989 -0.821,-1.397 -1.259,-2.162 -2.763,-4.185 -4.311,-6.177 -0.86,-1.107 -1.723,-2.214 -2.591,-3.31 -0.214,-0.27 -0.43,-0.5 -0.649,-0.689 -0.439,-0.378 -0.894,-0.592 -1.383,-0.632 m -4.748,10.699 c -0.228,-0.254 -0.455,-0.443 -0.682,-0.641 -1.085,-0.943 -2.189,-1.202 -3.559,0.109 -0.412,0.394 -0.775,0.792 -1.064,1.201 -0.022,0.032 -0.039,0.065 -0.061,0.097 -0.259,0.386 -0.436,0.784 -0.511,1.199 -0.004,0.024 -0.026,0.045 -0.03,0.07 0.002,0.028 0.007,0.054 0.009,0.081 -0.037,0.328 -0.007,0.666 0.112,1.018 10e-4,0.013 0.002,0.026 0.004,0.039 0.008,0.022 0.033,0.047 0.041,0.069 0.141,0.369 0.352,0.75 0.7,1.154 2.613,3.035 5.12,6.14 9.184,7.453 0.566,0.183 1.062,0.274 1.5,0.271 0.661,-0.004 1.151,-0.297 1.572,-0.74 0.216,-0.227 0.416,-0.503 0.581,-0.85 0.151,-0.32 0.307,-0.629 0.421,-1.052 -0.019,-0.053 -0.043,-0.154 -0.063,-0.234 -0.039,-0.162 -0.111,-0.318 -0.198,-0.5 -0.043,-0.091 -0.067,-0.191 -0.134,-0.265 -2.591,-2.841 -5.253,-5.618 -7.822,-8.479 z m 22.011,276.305 c -28.841,7.314 -86.348,-8.169 -86.926,-8.326 l -0.335,1.231 c 0.58,0.158 58.408,15.73 87.575,8.332 z m 6.776,-67.947 -1.672,-8.994 -4.055,-0.317 1.621,8.718 c 0.101,0.544 0.107,0.917 0.02,1.118 -0.087,0.2 -0.294,0.288 -0.62,0.263 -0.633,-0.05 -1.039,-0.557 -1.218,-1.523 l -0.323,-1.733 1.169,0.091 -0.683,-3.671 -1.168,-0.091 -0.616,-3.314 -4.056,-0.317 1.646,8.851 c 0.319,1.713 1.024,3.08 2.116,4.1 1.092,1.02 2.467,1.594 4.125,1.724 1.598,0.125 2.7,-0.213 3.306,-1.013 0.605,-0.8 0.742,-2.098 0.408,-3.892 m 1.42,-14.074 -4.769,-6.593 2.161,-7.328 -4.554,-0.356 -1.657,7.448 4.654,6.504 z m 10.597,14.912 -1.653,-8.892 -4.056,-0.317 1.654,8.892 c 0.158,0.85 -0.06,1.252 -0.652,1.205 -0.573,-0.044 -0.938,-0.492 -1.096,-1.341 l -1.654,-8.892 -4.055,-0.317 1.68,9.035 c 0.294,1.584 0.995,2.888 2.1,3.912 1.106,1.024 2.432,1.597 3.977,1.718 1.538,0.12 2.629,-0.251 3.273,-1.111 0.643,-0.861 0.804,-2.158 0.482,-3.892 m -11.826,-28.725 2.587,13.919 4.056,0.317 -2.588,-13.919 z m 9.617,-151.05 c -1.476,0.553 -3.036,0.886 -4.502,1.462 -4.205,1.651 -1.53,0.594 -6.226,2.496 4.508,4.23 6.692,4.283 10.283,6.452 1.854,0.27 3.933,0.5 4.493,0.638 4.292,1.051 6.067,-1 7.887,-3.423 -0.619,-0.394 -1.136,-1.119 -1.52,-2.223 -0.359,-1.029 -1.198,-1.899 -1.855,-2.816 -2.534,-3.539 -4.505,-4.105 -8.56,-2.586 m -22.812,150.019 2.588,13.919 4.055,0.317 -2.588,-13.919 z m -0.833,18.973 -4.055,-0.317 2.588,13.92 4.055,0.317 z m -7.005,-0.547 c -1.478,-0.116 -2.549,0.235 -3.21,1.051 -0.663,0.815 -0.848,2.005 -0.558,3.569 l 1.661,8.932 4.056,0.317 -1.538,-8.27 c -0.12,-0.646 -0.099,-1.068 0.065,-1.266 0.163,-0.198 0.544,-0.274 1.144,-0.227 l 0.209,0.016 -0.75,-4.038 z m -13.96,-13.266 c 0.379,2.04 1.405,3.822 3.076,5.346 1.671,1.524 3.526,2.365 5.563,2.525 1.931,0.151 3.454,-0.437 4.569,-1.764 1.115,-1.326 1.487,-2.989 1.115,-4.987 -0.378,-2.033 -1.395,-3.814 -3.05,-5.344 -1.656,-1.529 -3.48,-2.372 -5.471,-2.527 -1.977,-0.155 -3.533,0.427 -4.665,1.745 -1.133,1.319 -1.512,2.987 -1.137,5.006 m 8.313,9.958 c -0.105,-0.566 -0.393,-1.063 -0.863,-1.49 -0.469,-0.426 -0.984,-0.662 -1.545,-0.705 -0.583,-0.046 -1.027,0.109 -1.332,0.464 -0.305,0.354 -0.402,0.829 -0.291,1.425 0.107,0.577 0.394,1.082 0.859,1.515 0.465,0.432 0.975,0.669 1.53,0.713 0.554,0.043 0.993,-0.125 1.316,-0.504 0.323,-0.379 0.431,-0.852 0.326,-1.418 m 2.3,1.636 c 0.465,0.432 0.975,0.67 1.53,0.713 0.555,0.044 0.993,-0.124 1.316,-0.503 0.323,-0.379 0.432,-0.852 0.326,-1.418 -0.105,-0.567 -0.393,-1.063 -0.862,-1.49 -0.47,-0.427 -0.985,-0.662 -1.545,-0.706 -0.583,-0.045 -1.028,0.109 -1.332,0.464 -0.305,0.355 -0.403,0.83 -0.292,1.425 0.108,0.578 0.394,1.083 0.859,1.515 m -3.292,1.153 -4.055,-0.317 2.588,13.92 4.055,0.317 z m -54.839,11.2 c -0.338,0.406 -0.447,0.935 -0.325,1.587 0.127,0.687 0.459,1.281 0.995,1.781 0.536,0.501 1.137,0.778 1.803,0.83 0.646,0.05 1.145,-0.142 1.498,-0.577 0.352,-0.434 0.463,-0.999 0.335,-1.692 -0.008,-0.038 -0.018,-0.076 -0.026,-0.114 -0.082,-0.238 -0.161,-0.479 -0.234,-0.723 -0.176,-0.4 -0.422,-0.777 -0.741,-1.13 -0.533,-0.591 -1.244,-1.352 -2.01,-1.626 l 0.199,1.072 c -0.658,-0.011 -1.156,0.186 -1.494,0.592 m -3.205,-10.894 c 0.184,-0.223 0.614,-0.308 1.289,-0.255 l 0.236,0.018 -0.846,-4.551 -1.215,-0.095 c -1.666,-0.13 -2.872,0.265 -3.618,1.184 -0.746,0.92 -0.956,2.26 -0.628,4.022 l 1.872,10.067 4.57,0.357 -1.733,-9.32 c -0.135,-0.727 -0.111,-1.203 0.073,-1.427 m 40.654,10.711 c -0.139,0.456 -0.553,0.656 -1.243,0.603 -1.294,-0.102 -2.149,-1.275 -2.567,-3.52 l -5.494,-29.55 -13.13,-1.026 5.451,29.319 c 0.266,1.431 0.326,2.379 0.179,2.845 -0.148,0.465 -0.566,0.672 -1.256,0.618 -1.294,-0.101 -2.163,-1.352 -2.61,-3.751 l -5.451,-29.319 -13.13,-1.026 6.041,32.489 c 0.14,0.754 0.317,1.485 0.532,2.194 0.102,0.233 0.18,0.474 0.234,0.723 0.959,2.772 2.512,5.184 4.659,7.236 2.868,2.74 6.21,4.259 10.026,4.557 4.528,0.354 7.614,-1.498 9.261,-5.556 1.913,2.405 3.813,4.164 5.698,5.277 1.885,1.112 4.078,1.767 6.58,1.962 3.967,0.31 6.769,-0.729 8.408,-3.117 1.638,-2.389 2.011,-5.982 1.119,-10.78 l -5.826,-31.334 -13.13,-1.026 5.451,29.32 c 0.27,1.452 0.336,2.406 0.198,2.862 m 29.896,-24.782 c 0.163,-0.198 0.544,-0.274 1.144,-0.227 l 0.209,0.016 -0.75,-4.038 -1.079,-0.084 c -1.478,-0.116 -2.549,0.234 -3.21,1.05 -0.663,0.816 -0.848,2.006 -0.557,3.569 l 1.66,8.933 4.056,0.317 -1.538,-8.27 c -0.12,-0.646 -0.099,-1.068 0.065,-1.266 m 5.428,-184.977 c -2.134,-2.215 -4.143,-4.301 -6.175,-6.409 -0.986,-1.024 -1.987,-2.063 -2.933,-3.045 0,0.003 0.001,0.006 0.001,0.008 0,0.484 0.08,0.985 0.199,1.49 0.04,0.174 0.1,0.345 0.153,0.52 0.103,0.333 0.223,0.664 0.369,0.996 0.089,0.207 0.178,0.408 0.283,0.612 0.162,0.316 0.347,0.621 0.541,0.927 1.81,2.859 4.898,5.199 7.562,4.901 m 5.877,8.356 c -0.134,-0.234 -0.34,-0.382 -0.502,-0.583 -0.192,-0.239 -0.37,-0.495 -0.596,-0.694 -0.289,-0.254 -0.618,-0.464 -0.953,-0.666 -0.25,-0.15 -0.48,-0.324 -0.749,-0.453 -0.41,-0.196 -0.849,-0.365 -1.29,-0.531 -0.886,-0.331 -1.797,-0.641 -2.706,-0.985 -0.353,0.765 -0.715,1.49 -1.115,2.156 -0.999,1.665 -2.314,2.883 -4.218,3.506 -0.382,0.125 -0.709,0.303 -1.147,0.372 -0.563,0.087 -1.06,0.695 -1.646,1.442 -0.352,0.448 -0.727,0.934 -1.19,1.421 10e-4,0 10e-4,-10e-4 10e-4,-10e-4 v 10e-4 c 1.236,-0.318 2.357,-0.605 3.525,-0.905 2.784,-0.713 5.414,-1.388 7.989,-2.048 0.333,-0.086 0.679,-0.175 1.011,-0.26 h 0.001 c 1.315,-0.337 2.625,-0.673 3.948,-1.012 -0.109,-0.291 -0.314,-0.465 -0.459,-0.713 z m 19.677,4.521 c 0.02,0.007 0.04,0.023 0.061,0.029 0.325,-0.486 0.627,-0.989 0.933,-1.489 1.885,-2.891 3.712,-5.824 5.498,-8.776 0.007,-0.012 0.015,-0.023 0.022,-0.036 10e-4,-10e-4 0.002,-0.003 0.002,-0.004 0.917,-1.514 1.508,-2.5 1.327,-4.145 -0.048,-0.44 -0.682,-1.086 -1.272,-1.5 -1.64,-1.153 -3.43,-1.51 -5.106,-0.408 -1.322,0.869 -2.887,2.389 -3.879,3.478 -3.56,3.907 -4.957,7.352 -8.604,11.167 -1.215,1.271 -4.968,1.915 -6.8,1.786 -5.782,-0.408 -7.81,-0.714 -12.55,2.702 -2.34,1.686 -4.672,4.348 -2.852,7.12 0.459,0.7 0.67,1.531 0.488,2.347 -1.619,7.254 8.369,8.928 14.628,6.395 4.031,-1.631 2.554,-0.948 6.487,-2.78 1.722,-0.803 2.914,-1.944 3.883,-3.24 l 0.01,0.02 c 0.031,-0.045 0.054,-0.095 0.085,-0.14 1.443,-1.977 2.367,-4.318 3.628,-6.528 0.368,-0.636 0.748,-1.261 1.18,-1.844 0.885,-1.195 1.739,-2.413 2.574,-3.646 -0.023,-0.005 -0.049,-0.021 -0.072,-0.026 0.109,-0.162 0.22,-0.321 0.329,-0.482 m -2.221,183.768 v 0 l 4.115,0.322 1.225,-2.729 2.42,3.013 4.036,0.316 -5.007,-6.491 -1.437,-7.73 -4.055,-0.317 1.437,7.73 -2.429,5.228 -4.246,-5.87 2.162,-7.328 -4.555,-0.356 -1.657,7.448 4.655,6.503 z m 6.28,15.519 c -0.088,0.201 -0.295,0.289 -0.621,0.263 -0.632,-0.049 -1.038,-0.556 -1.218,-1.522 l -0.322,-1.733 1.169,0.091 -0.683,-3.671 -1.169,-0.091 -0.616,-3.314 -4.055,-0.317 1.646,8.851 c 0.318,1.713 1.023,3.08 2.115,4.1 1.092,1.02 2.467,1.594 4.125,1.724 1.598,0.125 2.7,-0.213 3.306,-1.013 0.606,-0.8 0.742,-2.098 0.409,-3.892 l -1.673,-8.994 -4.055,-0.317 1.621,8.718 c 0.101,0.544 0.108,0.917 0.021,1.117 M 30.345,-328.878 c -11.851,-15.441 -15.12,-22.114 -15.151,-22.18 l -1.151,0.554 c 0.131,0.27 3.325,6.806 15.231,22.327 -3.443,1.692 -12.499,6.486 -15.617,11.521 -3.382,5.46 -7.773,7.076 -8.234,7.234 -0.534,0.096 -2.286,0.793 -3.264,5.744 -0.108,0.544 -0.204,0.873 -0.277,1.069 -0.099,-0.118 -0.208,-0.261 -0.293,-0.374 -0.523,-0.688 -1.173,-1.545 -2.151,-1.57 -0.614,-0.02 -1.203,0.311 -1.762,0.971 -0.712,0.842 -1.203,1.768 -1.722,2.748 -1.467,2.769 -3.129,5.907 -10.647,8.862 -0.15,0.055 -4.011,1.511 -5.868,6.386 -0.717,0.505 -4.118,2.607 -8.443,0.593 l -0.153,-0.072 -0.169,0.014 c -0.618,0.051 -2.757,1.014 -4.341,11.234 l -0.016,0.104 0.018,0.104 c 0.005,0.029 0.477,3.561 -5.148,7.33 -5.689,3.81 -8.488,15.662 -9.033,18.214 -0.043,0.202 -0.074,0.353 -0.089,0.43 -0.323,0.925 -0.985,2.276 -1.736,3.054 -0.355,0.314 -0.746,0.56 -1.173,0.678 -0.256,0.07 -0.581,0.111 -0.947,0.05 0.015,0.051 0.024,0.104 0.03,0.16 0.014,0.142 0.029,0.304 -0.091,0.493 -0.158,0.248 -0.552,0.543 -1.488,0.9 l -0.013,0.008 c -0.016,0.005 -0.036,0.011 -0.052,0.017 -0.072,0.024 -0.151,0.049 -0.227,0.074 -0.344,0.108 -1.154,0.403 -1.922,0.552 0.753,0.494 0.985,0.721 1.17,1.024 0.665,1.304 0.254,3.279 0.226,3.638 -0.109,1.402 -2.927,5.507 -6.617,8.742 l -0.242,0.212 0.027,0.321 c 0.086,1.027 0.614,6.207 2.606,7.356 0.527,0.302 1.112,0.323 1.696,0.061 0.347,-0.107 0.744,-0.185 1.02,-0.207 -0.503,0.795 -2.808,3.183 -12.867,10.046 -9.931,6.775 -13.098,9.459 -14.29,10.47 -0.068,0.058 -0.136,0.115 -0.197,0.167 -0.289,-0.195 -0.715,-0.36 -1.445,-0.432 -1.602,-0.159 -3.559,1.39 -4.246,2.879 -0.435,0.944 -0.338,1.82 0.267,2.402 2.854,2.745 15.575,-2.846 25.744,-8.021 l 4.457,-2.107 c -0.716,5.905 -4.584,34.093 -16.426,65.966 l 1.197,0.445 c 13.325,-35.868 16.598,-67.104 16.629,-67.415 l 0.113,-1.124 -6.532,3.09 c -20.464,10.412 -23.831,8.697 -24.298,8.246 -0.245,-0.237 -0.131,-0.646 0.008,-0.948 0.522,-1.132 2.045,-2.235 2.962,-2.143 0.733,0.072 0.889,0.233 0.956,0.302 0.559,0.58 1.012,0.197 1.637,-0.334 1.178,-0.999 4.307,-3.652 14.183,-10.389 14.413,-9.833 13.813,-11.061 13.455,-11.794 -0.435,-0.891 -1.91,-0.572 -2.751,-0.303 l -0.078,0.031 c -0.275,0.13 -0.435,0.076 -0.556,0.006 -0.998,-0.575 -1.715,-3.77 -1.943,-6.04 1.822,-1.624 6.512,-7.11 6.662,-10.076 0.037,-0.745 0.25,-2.243 -0.037,-3.452 2.042,-0.706 1.995,-1.181 1.96,-1.532 -0.005,-0.056 -0.015,-0.109 -0.029,-0.16 0.366,0.061 0.691,0.02 0.947,-0.05 2.08,-0.575 3.336,-4.091 3.473,-4.49 l 0.022,-0.084 c 0.028,-0.14 2.776,-13.98 8.588,-17.873 5.855,-3.922 5.785,-7.756 5.711,-8.49 1.22,-7.819 2.7,-9.622 3.139,-9.998 5.367,2.322 9.446,-0.84 9.621,-0.978 l 0.14,-0.113 0.062,-0.169 c 1.617,-4.44 5.156,-5.799 5.191,-5.812 7.971,-3.133 9.828,-6.64 11.32,-9.457 0.486,-0.918 0.946,-1.785 1.569,-2.522 0.288,-0.34 0.568,-0.528 0.754,-0.52 0.366,0.01 0.83,0.621 1.169,1.067 0.452,0.594 0.921,1.207 1.603,1.05 0.686,-0.159 0.981,-0.987 1.235,-2.27 0.863,-4.37 2.241,-4.735 2.254,-4.738 l 0.09,-0.02 c 0.209,-0.063 5.163,-1.622 8.987,-7.796 3.595,-5.804 16.269,-11.609 16.397,-11.666 z m -35.329,-41.125 c -2.529,1.18 -6.432,4.905 -7.75,6.202 l -5.546,-5.307 -22.835,20.106 4.052,4.885 -1.904,0.852 c -16.078,8.127 -41.806,32.463 -42.064,32.708 l 0.879,0.925 c 0.257,-0.243 25.85,-24.452 41.733,-32.481 l 3.411,-1.525 -4.334,-5.225 21.026,-18.513 5.604,5.363 0.442,-0.448 c 0.05,-0.051 5.017,-5.075 7.826,-6.386 z m 208.683,193.744 c 0,54.401 -21.185,105.546 -59.652,144.013 C 105.58,6.221 54.435,27.406 0.034,27.406 c -54.4,0 -105.545,-21.185 -144.012,-59.652 -38.468,-38.467 -59.653,-89.612 -59.653,-144.013 0,-54.4 21.185,-105.545 59.653,-144.013 38.467,-38.467 89.612,-59.652 144.012,-59.652 4.455,0 8.878,0.195 13.284,0.477 0.106,-0.188 0.226,-0.373 0.306,-0.561 1.154,-2.693 2.348,-5.246 5.441,-5.982 3.031,-0.72 2.761,-2.133 1.082,-3.98 -2.388,-2.626 -2.341,-5.557 -0.915,-8.506 2.97,-6.143 7.848,-10.097 14.416,-11.866 2.72,-0.733 5.096,0.052 7.043,2.183 2.436,2.666 4.874,5.34 7.453,7.865 2.398,2.346 4.116,6.114 8.61,4.657 0.178,-0.058 0.514,0.038 0.634,0.181 2.69,3.233 6.738,3.169 10.299,4.284 0.317,0.099 0.67,0.253 0.879,0.493 1.487,1.702 3.256,1.689 5.432,1.638 3.858,-0.089 8.048,0.497 9.68,4.716 1.374,3.553 2.624,7.003 5.038,10.069 0.829,1.052 0.672,3.333 0.232,4.839 -0.804,2.753 -2.154,5.346 -3.277,8.005 -0.086,0.056 -0.173,0.112 -0.26,0.168 21.528,9.95 41.367,23.703 58.636,40.972 38.467,38.468 59.652,89.613 59.652,144.013" /></g></g></g></g></svg>