<?xml version="1.0" standalone="no"?>
<!DOCTYPE svg PUBLIC "-//W3C//DTD SVG 20010904//EN"
 "http://www.w3.org/TR/2001/REC-SVG-20010904/DTD/svg10.dtd">
<svg version="1.0" xmlns="http://www.w3.org/2000/svg"
 width="1366.000000pt" height="768.000000pt" viewBox="0 0 1366.000000 768.000000"
 preserveAspectRatio="xMidYMid meet">

<g transform="translate(0.000000,768.000000) scale(0.100000,-0.100000)"
fill="#000000" stroke="none">
<path d="M6530 5213 c-221 -19 -367 -92 -533 -266 -52 -54 -81 -77 -84 -68
-16 40 -95 141 -136 172 -80 60 -134 74 -277 73 -115 0 -133 -3 -223 -34 -154
-52 -281 -143 -389 -278 -66 -83 -139 -226 -162 -317 -24 -94 -316 -1678 -311
-1683 7 -7 595 39 620 48 18 7 34 82 154 731 74 398 141 746 149 773 20 70 68
116 120 116 45 0 52 -9 52 -73 0 -23 -61 -376 -137 -784 -75 -409 -135 -745
-132 -748 5 -4 630 44 636 49 2 2 63 331 137 732 75 401 142 752 151 781 36
120 175 158 175 49 0 -18 -63 -372 -140 -787 -76 -414 -137 -755 -134 -758 2
-3 147 6 321 20 l317 24 149 795 c147 790 148 796 150 950 2 180 -11 241 -72
331 -74 107 -229 166 -401 152z m-1250 -626 c0 -13 -41 -211 -44 -215 -3 -2
-40 -8 -83 -12 -93 -10 -110 -16 -118 -41 -12 -35 3 -42 91 -37 46 2 84 4 84
4 0 -11 -31 -160 -35 -165 -2 -5 -41 -11 -85 -14 -94 -7 -120 -19 -120 -52 0
-29 16 -32 125 -24 44 4 81 6 81 5 1 0 -7 -49 -19 -108 -23 -126 -11 -118
-192 -121 -89 -2 -117 1 -147 16 -40 20 -78 83 -78 129 0 52 72 403 92 450 27
62 101 131 164 151 27 9 96 20 154 25 58 5 111 10 118 11 6 0 12 0 12 -2z"/>
<path d="M9492 4844 c-35 -7 -78 -22 -96 -34 -48 -29 -105 -95 -128 -148 -17
-37 -108 -476 -108 -519 0 -11 45 -11 156 3 l41 5 14 77 c13 73 15 77 43 82
28 5 30 8 46 93 l17 87 -29 0 c-15 0 -28 2 -28 5 0 23 25 115 36 133 17 25 62
30 71 7 3 -9 -13 -114 -36 -235 -22 -120 -41 -223 -41 -229 0 -12 67 -14 145
-5 l50 6 43 232 c43 236 51 335 30 381 -26 58 -116 82 -226 59z"/>
<path d="M8897 4799 c-105 -25 -196 -106 -231 -207 -13 -35 -96 -463 -96 -491
0 -12 65 -14 145 -5 l50 6 39 217 c47 262 54 281 95 281 28 0 31 -3 31 -32 0
-18 -18 -127 -39 -243 -22 -115 -38 -212 -36 -213 2 -2 46 -1 99 3 85 7 95 9
99 29 3 11 24 125 47 253 48 263 48 302 -1 358 -45 50 -112 65 -202 44z"/>
<path d="M8274 4746 c-90 -28 -175 -113 -204 -202 -14 -40 -100 -497 -95 -502
2 -2 46 0 99 4 92 6 95 7 100 33 29 149 25 141 56 141 27 0 28 3 40 68 6 37
14 77 17 90 4 19 1 22 -25 22 l-30 0 13 62 c14 65 43 102 74 96 27 -5 24 -46
-19 -273 -22 -120 -39 -219 -38 -220 5 -4 189 13 194 17 2 3 25 115 50 249 59
317 55 372 -29 413 -42 19 -144 20 -203 2z"/>
<path d="M4587 4726 c-67 -24 -107 -76 -107 -138 0 -44 23 -75 61 -83 27 -6
30 -10 24 -32 l-6 -25 32 19 c37 21 93 87 108 126 22 58 7 117 -36 136 -29 13
-29 13 -76 -3z"/>
<path d="M7823 4703 c-19 -3 -34 -11 -37 -21 -3 -9 -30 -154 -61 -322 -30
-168 -57 -314 -60 -324 -4 -18 1 -19 92 -13 53 4 98 9 101 11 2 3 31 148 63
323 32 175 61 326 63 336 4 15 -4 17 -62 15 -37 0 -81 -3 -99 -5z"/>
<path d="M7501 4679 c-47 -5 -86 -10 -87 -12 -1 -1 -21 -103 -44 -227 -31
-166 -41 -243 -38 -294 4 -66 6 -71 42 -102 42 -36 101 -51 160 -40 31 6 35
11 45 54 5 26 13 71 17 100 l7 52 -31 0 c-20 0 -33 6 -36 18 -3 9 12 114 34
231 46 245 44 231 28 230 -7 -1 -51 -6 -97 -10z"/>
<path d="M7173 4653 c-45 -3 -54 -7 -58 -26 -9 -37 -123 -662 -122 -663 6 -4
188 14 193 19 5 5 49 231 123 630 l8 47 -46 -2 c-25 -1 -70 -3 -98 -5z"/>
<path d="M4260 4511 l-64 -6 -48 -260 c-66 -354 -62 -414 31 -468 37 -22 136
-33 172 -19 23 9 27 19 42 109 10 54 17 101 17 106 0 4 -13 7 -29 7 -58 0 -58
10 -12 263 23 128 45 242 48 255 5 21 2 22 -43 20 -27 -1 -78 -4 -114 -7z"/>
<path d="M7405 3949 c-48 -13 -86 -60 -92 -112 -5 -39 -2 -46 22 -65 34 -27
61 -28 103 -2 63 39 90 117 55 158 -23 26 -50 32 -88 21z"/>
<path d="M7096 3909 c-60 -47 -74 -124 -29 -159 41 -32 88 -22 136 29 44 47
50 98 17 131 -27 27 -89 27 -124 -1z"/>
<path d="M9669 3913 l-67 -4 -48 -61 c-27 -34 -54 -69 -61 -77 -10 -14 -17 -5
-43 53 l-31 68 -62 -6 c-34 -3 -98 -8 -142 -11 -176 -12 -149 4 -274 -171 -61
-85 -111 -160 -111 -167 0 -7 17 -90 37 -186 l38 -173 110 6 c60 4 111 8 112
10 1 1 -20 78 -47 171 -28 92 -50 175 -50 183 0 13 200 296 205 290 1 -2 28
-60 59 -129 l58 -126 -31 -169 c-17 -93 -33 -178 -36 -188 -4 -18 1 -19 92
-13 53 4 98 9 101 11 2 3 20 89 39 191 l34 186 120 155 c65 85 119 156 119
159 0 3 -12 4 -27 3 -16 -1 -58 -3 -94 -5z"/>
<path d="M8768 3840 c-43 -3 -82 -10 -87 -15 -4 -6 -34 -149 -65 -320 -32
-170 -60 -321 -63 -334 l-6 -24 99 8 c54 4 100 8 101 9 4 4 123 649 123 667 0
11 -6 18 -12 17 -7 0 -48 -4 -90 -8z"/>
<path d="M8496 3819 c-49 -5 -91 -10 -92 -12 -19 -19 -224 -315 -224 -323 0
-16 76 -354 81 -358 4 -4 212 14 217 19 2 1 -20 79 -48 172 -27 94 -50 175
-50 181 0 7 42 69 93 139 140 193 140 193 125 192 -7 -1 -53 -6 -102 -10z"/>
<path d="M8121 3789 c-47 -5 -87 -11 -89 -14 -4 -3 -72 -362 -125 -654 l-5
-24 96 7 c53 4 98 8 100 10 2 2 30 147 63 323 32 175 61 328 64 341 4 14 1 22
-7 21 -7 -1 -51 -6 -97 -10z"/>
<path d="M7748 3763 c-60 -4 -68 -6 -73 -26 -23 -104 -85 -461 -85 -492 0 -53
27 -104 69 -132 27 -19 48 -23 106 -23 l71 0 13 78 c7 42 15 87 18 99 4 18 0
22 -29 25 -27 2 -34 8 -36 29 -2 21 51 338 72 432 3 14 -2 17 -27 15 -18 -1
-62 -3 -99 -5z"/>
<path d="M7200 3729 c-122 -24 -268 -139 -327 -259 -93 -191 -42 -379 120
-439 44 -17 149 -13 214 7 121 38 228 133 290 259 36 72 38 83 38 167 0 82 -3
96 -30 145 -60 109 -160 148 -305 120z m101 -228 c24 -24 29 -38 29 -77 0
-162 -198 -271 -278 -154 -19 29 -23 43 -18 79 10 74 60 143 126 173 8 4 37 7
63 7 41 1 53 -4 78 -28z"/>
</g>
</svg>
