<?xml version="1.0" standalone="no"?>
<!DOCTYPE svg PUBLIC "-//W3C//DTD SVG 20010904//EN"
 "http://www.w3.org/TR/2001/REC-SVG-20010904/DTD/svg10.dtd">
<svg version="1.0" xmlns="http://www.w3.org/2000/svg"
 width="83.000000pt" height="498.000000pt" viewBox="0 0 83.000000 498.000000"
 preserveAspectRatio="xMidYMid meet">

<g transform="translate(0.000000,498.000000) scale(0.100000,-0.100000)"
fill="#000000" stroke="none">
<path d="M420 4908 l0 -72 -57 -58 -58 -59 -5 -77 -5 -77 -87 -3 -88 -3 0
-144 0 -145 26 0 27 0 -6 -372 c-4 -205 -12 -897 -18 -1538 l-11 -1165 -28
-46 -28 -47 -8 -551 -9 -551 336 0 336 0 6 547 5 546 -26 41 -26 41 12 1185
c7 652 15 1348 19 1548 l6 362 23 0 c21 0 23 6 29 83 4 45 5 109 3 142 l-3 60
-86 3 -87 3 -4 79 -3 79 -58 59 -57 58 0 72 0 72 -35 0 -35 0 0 -72z"/>
</g>
</svg>
